<svg width="472" height="472" viewBox="0 0 472 472" fill="none" xmlns="http://www.w3.org/2000/svg">
<rect width="472" height="472" rx="14" fill="#27283C"/>
<path d="M45.4043 35.6895H39.8965L38.7441 39H36.1758L41.5469 24.7812H43.7637L49.1445 39H46.5664L45.4043 35.6895ZM40.5898 33.6973H44.7109L42.6504 27.7988L40.5898 33.6973ZM56.659 36.1289C56.659 35.7057 56.4832 35.3835 56.1316 35.1621C55.7866 34.9408 55.2104 34.7454 54.4031 34.5762C53.5958 34.4069 52.922 34.1921 52.3816 33.9316C51.1967 33.3587 50.6043 32.5286 50.6043 31.4414C50.6043 30.5299 50.9884 29.7682 51.7566 29.1562C52.5249 28.5443 53.5014 28.2383 54.6863 28.2383C55.9493 28.2383 56.9682 28.5508 57.743 29.1758C58.5242 29.8008 58.9148 30.6113 58.9148 31.6074H56.5418C56.5418 31.1517 56.3725 30.7741 56.034 30.4746C55.6954 30.1686 55.2462 30.0156 54.6863 30.0156C54.1655 30.0156 53.7391 30.1361 53.407 30.377C53.0815 30.6178 52.9187 30.9401 52.9187 31.3438C52.9187 31.7083 53.0717 31.9915 53.3777 32.1934C53.6837 32.3952 54.3022 32.6003 55.2332 32.8086C56.1642 33.0104 56.8934 33.2546 57.4207 33.541C57.9546 33.821 58.3484 34.1595 58.6023 34.5566C58.8628 34.9538 58.993 35.4355 58.993 36.002C58.993 36.9525 58.5991 37.724 57.8113 38.3164C57.0236 38.9023 55.9917 39.1953 54.7156 39.1953C53.8497 39.1953 53.0783 39.0391 52.4012 38.7266C51.7241 38.4141 51.1967 37.9844 50.8191 37.4375C50.4415 36.8906 50.2527 36.3014 50.2527 35.6699H52.5574C52.59 36.2298 52.8016 36.6628 53.1922 36.9688C53.5828 37.2682 54.1004 37.418 54.7449 37.418C55.3699 37.418 55.8452 37.3008 56.1707 37.0664C56.4962 36.8255 56.659 36.513 56.659 36.1289ZM67.191 36.1289C67.191 35.7057 67.0152 35.3835 66.6637 35.1621C66.3186 34.9408 65.7424 34.7454 64.9352 34.5762C64.1279 34.4069 63.454 34.1921 62.9137 33.9316C61.7288 33.3587 61.1363 32.5286 61.1363 31.4414C61.1363 30.5299 61.5204 29.7682 62.2887 29.1562C63.0569 28.5443 64.0335 28.2383 65.2184 28.2383C66.4814 28.2383 67.5003 28.5508 68.275 29.1758C69.0562 29.8008 69.4469 30.6113 69.4469 31.6074H67.0738C67.0738 31.1517 66.9046 30.7741 66.566 30.4746C66.2275 30.1686 65.7783 30.0156 65.2184 30.0156C64.6975 30.0156 64.2711 30.1361 63.9391 30.377C63.6135 30.6178 63.4508 30.9401 63.4508 31.3438C63.4508 31.7083 63.6038 31.9915 63.9098 32.1934C64.2158 32.3952 64.8342 32.6003 65.7652 32.8086C66.6962 33.0104 67.4254 33.2546 67.9527 33.541C68.4866 33.821 68.8805 34.1595 69.1344 34.5566C69.3948 34.9538 69.525 35.4355 69.525 36.002C69.525 36.9525 69.1311 37.724 68.3434 38.3164C67.5556 38.9023 66.5237 39.1953 65.2477 39.1953C64.3818 39.1953 63.6103 39.0391 62.9332 38.7266C62.2561 38.4141 61.7288 37.9844 61.3512 37.4375C60.9736 36.8906 60.7848 36.3014 60.7848 35.6699H63.0895C63.122 36.2298 63.3336 36.6628 63.7242 36.9688C64.1148 37.2682 64.6324 37.418 65.277 37.418C65.902 37.418 66.3772 37.3008 66.7027 37.0664C67.0283 36.8255 67.191 36.513 67.191 36.1289ZM74.3246 39H71.9516V28.4336H74.3246V39ZM71.8051 25.6895C71.8051 25.3249 71.919 25.0221 72.1469 24.7812C72.3812 24.5404 72.7133 24.4199 73.143 24.4199C73.5727 24.4199 73.9047 24.5404 74.1391 24.7812C74.3734 25.0221 74.4906 25.3249 74.4906 25.6895C74.4906 26.0475 74.3734 26.347 74.1391 26.5879C73.9047 26.8223 73.5727 26.9395 73.143 26.9395C72.7133 26.9395 72.3812 26.8223 72.1469 26.5879C71.919 26.347 71.8051 26.0475 71.8051 25.6895ZM76.7023 33.6387C76.7023 31.998 77.0865 30.6895 77.8547 29.7129C78.6294 28.7298 79.6548 28.2383 80.9309 28.2383C82.1353 28.2383 83.0826 28.6582 83.7727 29.498L83.8801 28.4336H86.0187V38.6777C86.0187 40.0645 85.5858 41.1582 84.7199 41.959C83.8605 42.7598 82.6984 43.1602 81.2336 43.1602C80.4589 43.1602 79.7004 42.9974 78.9582 42.6719C78.2225 42.3529 77.6626 41.9329 77.2785 41.4121L78.4016 39.9863C79.1307 40.8522 80.0292 41.2852 81.0969 41.2852C81.8846 41.2852 82.5064 41.0703 82.9621 40.6406C83.4178 40.2174 83.6457 39.5924 83.6457 38.7656V38.0527C82.9621 38.8145 82.0507 39.1953 80.9113 39.1953C79.6743 39.1953 78.662 38.7038 77.8742 37.7207C77.093 36.7376 76.7023 35.377 76.7023 33.6387ZM79.0656 33.8438C79.0656 34.9049 79.2805 35.7415 79.7102 36.3535C80.1464 36.959 80.7486 37.2617 81.5168 37.2617C82.4738 37.2617 83.1835 36.8516 83.6457 36.0312V31.3828C83.1965 30.582 82.4934 30.1816 81.5363 30.1816C80.7551 30.1816 80.1464 30.4909 79.7102 31.1094C79.2805 31.7279 79.0656 32.6393 79.0656 33.8438ZM90.8672 28.4336L90.9355 29.6543C91.7168 28.7103 92.7422 28.2383 94.0117 28.2383C96.2122 28.2383 97.332 29.498 97.3711 32.0176V39H94.998V32.1543C94.998 31.4837 94.8516 30.9889 94.5586 30.6699C94.2721 30.3444 93.8001 30.1816 93.1426 30.1816C92.1855 30.1816 91.4727 30.6146 91.0039 31.4805V39H88.6309V28.4336H90.8672ZM104.651 39.1953C103.147 39.1953 101.927 38.7233 100.989 37.7793C100.058 36.8288 99.5926 35.5658 99.5926 33.9902V33.6973C99.5926 32.6426 99.7944 31.7018 100.198 30.875C100.608 30.0417 101.181 29.3939 101.917 28.9316C102.652 28.4694 103.473 28.2383 104.378 28.2383C105.817 28.2383 106.927 28.6973 107.708 29.6152C108.496 30.5332 108.889 31.832 108.889 33.5117V34.4688H101.985C102.057 35.3411 102.346 36.0312 102.854 36.5391C103.369 37.0469 104.013 37.3008 104.788 37.3008C105.875 37.3008 106.761 36.8613 107.444 35.9824L108.723 37.2031C108.3 37.8346 107.734 38.3262 107.024 38.6777C106.321 39.0228 105.53 39.1953 104.651 39.1953ZM104.368 30.1426C103.717 30.1426 103.19 30.3704 102.786 30.8262C102.389 31.2819 102.135 31.9167 102.024 32.7305H106.546V32.5547C106.494 31.7604 106.282 31.1615 105.911 30.7578C105.54 30.3477 105.026 30.1426 104.368 30.1426ZM110.496 33.6387C110.496 32.0111 110.873 30.7057 111.629 29.7227C112.384 28.7331 113.396 28.2383 114.666 28.2383C115.785 28.2383 116.69 28.6289 117.38 29.4102V24H119.754V39H117.605L117.488 37.9062C116.778 38.7656 115.831 39.1953 114.646 39.1953C113.409 39.1953 112.407 38.6973 111.638 37.7012C110.877 36.7051 110.496 35.3509 110.496 33.6387ZM112.869 33.8438C112.869 34.918 113.074 35.7578 113.484 36.3633C113.901 36.9622 114.49 37.2617 115.252 37.2617C116.222 37.2617 116.931 36.8288 117.38 35.9629V31.4512C116.944 30.6048 116.241 30.1816 115.271 30.1816C114.503 30.1816 113.91 30.4876 113.494 31.0996C113.077 31.7051 112.869 32.6198 112.869 33.8438ZM135.798 35.6895H130.29L129.138 39H126.57L131.941 24.7812H134.157L139.538 39H136.96L135.798 35.6895ZM130.984 33.6973H135.105L133.044 27.7988L130.984 33.6973ZM145.471 37.3008C146.063 37.3008 146.555 37.1283 146.945 36.7832C147.336 36.4382 147.544 36.0117 147.57 35.5039H149.807C149.781 36.1615 149.576 36.7767 149.191 37.3496C148.807 37.916 148.286 38.3652 147.629 38.6973C146.971 39.0293 146.262 39.1953 145.5 39.1953C144.022 39.1953 142.85 38.7168 141.984 37.7598C141.118 36.8027 140.686 35.4811 140.686 33.7949V33.5508C140.686 31.9427 141.115 30.6569 141.975 29.6934C142.834 28.7233 144.006 28.2383 145.49 28.2383C146.747 28.2383 147.769 28.6061 148.557 29.3418C149.351 30.071 149.768 31.0312 149.807 32.2227H147.57C147.544 31.6172 147.336 31.1191 146.945 30.7285C146.561 30.3379 146.07 30.1426 145.471 30.1426C144.702 30.1426 144.11 30.4225 143.693 30.9824C143.277 31.5358 143.065 32.3789 143.059 33.5117V33.8926C143.059 35.0384 143.264 35.8945 143.674 36.4609C144.09 37.0208 144.689 37.3008 145.471 37.3008ZM154.772 25.8652V28.4336H156.637V30.1914H154.772V36.0898C154.772 36.4935 154.85 36.7865 155.007 36.9688C155.169 37.1445 155.456 37.2324 155.866 37.2324C156.139 37.2324 156.416 37.1999 156.696 37.1348V38.9707C156.156 39.1204 155.635 39.1953 155.134 39.1953C153.311 39.1953 152.399 38.1895 152.399 36.1777V30.1914H150.661V28.4336H152.399V25.8652H154.772ZM161.183 39H158.81V28.4336H161.183V39ZM158.664 25.6895C158.664 25.3249 158.778 25.0221 159.005 24.7812C159.24 24.5404 159.572 24.4199 160.002 24.4199C160.431 24.4199 160.763 24.5404 160.998 24.7812C161.232 25.0221 161.349 25.3249 161.349 25.6895C161.349 26.0475 161.232 26.347 160.998 26.5879C160.763 26.8223 160.431 26.9395 160.002 26.9395C159.572 26.9395 159.24 26.8223 159.005 26.5879C158.778 26.347 158.664 26.0475 158.664 25.6895ZM163.532 33.6191C163.532 32.584 163.737 31.653 164.147 30.8262C164.557 29.9928 165.133 29.3548 165.875 28.9121C166.618 28.4629 167.47 28.2383 168.434 28.2383C169.86 28.2383 171.015 28.6973 171.901 29.6152C172.793 30.5332 173.274 31.7507 173.346 33.2676L173.356 33.8242C173.356 34.8659 173.154 35.7969 172.75 36.6172C172.353 37.4375 171.78 38.0723 171.032 38.5215C170.289 38.9707 169.43 39.1953 168.454 39.1953C166.963 39.1953 165.768 38.7005 164.87 37.7109C163.978 36.7148 163.532 35.39 163.532 33.7363V33.6191ZM165.905 33.8242C165.905 34.9115 166.129 35.7643 166.579 36.3828C167.028 36.9948 167.653 37.3008 168.454 37.3008C169.254 37.3008 169.876 36.9883 170.319 36.3633C170.768 35.7383 170.993 34.8236 170.993 33.6191C170.993 32.5514 170.761 31.7051 170.299 31.0801C169.843 30.4551 169.222 30.1426 168.434 30.1426C167.659 30.1426 167.044 30.4518 166.588 31.0703C166.133 31.6823 165.905 32.6003 165.905 33.8242ZM177.765 28.4336L177.833 29.6543C178.614 28.7103 179.64 28.2383 180.909 28.2383C183.11 28.2383 184.23 29.498 184.269 32.0176V39H181.896V32.1543C181.896 31.4837 181.749 30.9889 181.456 30.6699C181.17 30.3444 180.698 30.1816 180.04 30.1816C179.083 30.1816 178.37 30.6146 177.902 31.4805V39H175.529V28.4336H177.765ZM194.913 39H192.452V24.7812H194.913V39ZM200.894 25.8652V28.4336H202.759V30.1914H200.894V36.0898C200.894 36.4935 200.972 36.7865 201.129 36.9688C201.291 37.1445 201.578 37.2324 201.988 37.2324C202.261 37.2324 202.538 37.1999 202.818 37.1348V38.9707C202.278 39.1204 201.757 39.1953 201.255 39.1953C199.433 39.1953 198.521 38.1895 198.521 36.1777V30.1914H196.783V28.4336H198.521V25.8652H200.894ZM209.434 39.1953C207.93 39.1953 206.709 38.7233 205.772 37.7793C204.841 36.8288 204.375 35.5658 204.375 33.9902V33.6973C204.375 32.6426 204.577 31.7018 204.981 30.875C205.391 30.0417 205.964 29.3939 206.7 28.9316C207.435 28.4694 208.256 28.2383 209.161 28.2383C210.599 28.2383 211.709 28.6973 212.491 29.6152C213.278 30.5332 213.672 31.832 213.672 33.5117V34.4688H206.768C206.84 35.3411 207.129 36.0312 207.637 36.5391C208.151 37.0469 208.796 37.3008 209.571 37.3008C210.658 37.3008 211.543 36.8613 212.227 35.9824L213.506 37.2031C213.083 37.8346 212.517 38.3262 211.807 38.6777C211.104 39.0228 210.313 39.1953 209.434 39.1953ZM209.151 30.1426C208.5 30.1426 207.972 30.3704 207.569 30.8262C207.172 31.2819 206.918 31.9167 206.807 32.7305H211.329V32.5547C211.276 31.7604 211.065 31.1615 210.694 30.7578C210.323 30.3477 209.808 30.1426 209.151 30.1426ZM217.954 28.4336L218.023 29.5371C218.765 28.6712 219.78 28.2383 221.07 28.2383C222.482 28.2383 223.449 28.7786 223.97 29.8594C224.738 28.7786 225.819 28.2383 227.212 28.2383C228.377 28.2383 229.243 28.5605 229.81 29.2051C230.383 29.8496 230.676 30.8001 230.689 32.0566V39H228.316V32.125C228.316 31.4544 228.169 30.9629 227.876 30.6504C227.583 30.3379 227.098 30.1816 226.421 30.1816C225.881 30.1816 225.438 30.3281 225.093 30.6211C224.754 30.9076 224.517 31.2852 224.38 31.7539L224.39 39H222.017V32.0469C221.984 30.8034 221.349 30.1816 220.113 30.1816C219.162 30.1816 218.488 30.569 218.091 31.3438V39H215.718V28.4336H217.954ZM239.248 36.1289C239.248 35.7057 239.072 35.3835 238.721 35.1621C238.376 34.9408 237.799 34.7454 236.992 34.5762C236.185 34.4069 235.511 34.1921 234.971 33.9316C233.786 33.3587 233.193 32.5286 233.193 31.4414C233.193 30.5299 233.577 29.7682 234.346 29.1562C235.114 28.5443 236.09 28.2383 237.275 28.2383C238.538 28.2383 239.557 28.5508 240.332 29.1758C241.113 29.8008 241.504 30.6113 241.504 31.6074H239.131C239.131 31.1517 238.962 30.7741 238.623 30.4746C238.285 30.1686 237.835 30.0156 237.275 30.0156C236.755 30.0156 236.328 30.1361 235.996 30.377C235.671 30.6178 235.508 30.9401 235.508 31.3438C235.508 31.7083 235.661 31.9915 235.967 32.1934C236.273 32.3952 236.891 32.6003 237.822 32.8086C238.753 33.0104 239.482 33.2546 240.01 33.541C240.544 33.821 240.938 34.1595 241.191 34.5566C241.452 34.9538 241.582 35.4355 241.582 36.002C241.582 36.9525 241.188 37.724 240.4 38.3164C239.613 38.9023 238.581 39.1953 237.305 39.1953C236.439 39.1953 235.667 39.0391 234.99 38.7266C234.313 38.4141 233.786 37.9844 233.408 37.4375C233.031 36.8906 232.842 36.3014 232.842 35.6699H235.146C235.179 36.2298 235.391 36.6628 235.781 36.9688C236.172 37.2682 236.689 37.418 237.334 37.418C237.959 37.418 238.434 37.3008 238.76 37.0664C239.085 36.8255 239.248 36.513 239.248 36.1289Z" fill="#C7C7C7"/>
<path d="M159.885 233.395H157.143V241H156.023V233.395H153.287V232.469H159.885V233.395ZM162.184 235.428C162.665 234.838 163.29 234.543 164.059 234.543C165.399 234.543 166.075 235.299 166.087 236.811V241H165.003V236.805C164.999 236.348 164.893 236.01 164.686 235.791C164.483 235.572 164.165 235.463 163.731 235.463C163.38 235.463 163.071 235.557 162.806 235.744C162.54 235.932 162.333 236.178 162.184 236.482V241H161.1V232H162.184V235.428ZM170.461 241.117C169.601 241.117 168.902 240.836 168.363 240.273C167.824 239.707 167.554 238.951 167.554 238.006V237.807C167.554 237.178 167.674 236.617 167.912 236.125C168.154 235.629 168.49 235.242 168.92 234.965C169.353 234.684 169.822 234.543 170.326 234.543C171.15 234.543 171.791 234.814 172.248 235.357C172.705 235.9 172.933 236.678 172.933 237.689V238.141H168.638C168.654 238.766 168.836 239.271 169.183 239.658C169.535 240.041 169.98 240.232 170.519 240.232C170.902 240.232 171.226 240.154 171.492 239.998C171.758 239.842 171.99 239.635 172.189 239.377L172.851 239.893C172.32 240.709 171.523 241.117 170.461 241.117ZM170.326 235.434C169.888 235.434 169.521 235.594 169.224 235.914C168.927 236.23 168.744 236.676 168.674 237.25H171.849V237.168C171.818 236.617 171.67 236.191 171.404 235.891C171.138 235.586 170.779 235.434 170.326 235.434ZM177.378 235.633C177.214 235.605 177.036 235.592 176.844 235.592C176.133 235.592 175.651 235.895 175.397 236.5V241H174.313V234.66H175.368L175.385 235.393C175.741 234.826 176.245 234.543 176.897 234.543C177.108 234.543 177.268 234.57 177.378 234.625V235.633ZM181.013 241.117C180.154 241.117 179.455 240.836 178.916 240.273C178.376 239.707 178.107 238.951 178.107 238.006V237.807C178.107 237.178 178.226 236.617 178.464 236.125C178.707 235.629 179.042 235.242 179.472 234.965C179.906 234.684 180.375 234.543 180.878 234.543C181.703 234.543 182.343 234.814 182.8 235.357C183.257 235.9 183.486 236.678 183.486 237.689V238.141H179.191C179.207 238.766 179.388 239.271 179.736 239.658C180.087 240.041 180.533 240.232 181.072 240.232C181.455 240.232 181.779 240.154 182.044 239.998C182.31 239.842 182.542 239.635 182.742 239.377L183.404 239.893C182.873 240.709 182.076 241.117 181.013 241.117ZM180.878 235.434C180.441 235.434 180.074 235.594 179.777 235.914C179.48 236.23 179.296 236.676 179.226 237.25H182.402V237.168C182.371 236.617 182.222 236.191 181.957 235.891C181.691 235.586 181.332 235.434 180.878 235.434ZM191.876 241C191.814 240.875 191.763 240.652 191.724 240.332C191.22 240.855 190.618 241.117 189.919 241.117C189.294 241.117 188.781 240.941 188.378 240.59C187.98 240.234 187.781 239.785 187.781 239.242C187.781 238.582 188.031 238.07 188.531 237.707C189.034 237.34 189.741 237.156 190.652 237.156H191.706V236.658C191.706 236.279 191.593 235.979 191.366 235.756C191.14 235.529 190.806 235.416 190.365 235.416C189.978 235.416 189.654 235.514 189.392 235.709C189.13 235.904 188.999 236.141 188.999 236.418H187.909C187.909 236.102 188.021 235.797 188.243 235.504C188.47 235.207 188.775 234.973 189.158 234.801C189.544 234.629 189.968 234.543 190.429 234.543C191.159 234.543 191.732 234.727 192.146 235.094C192.56 235.457 192.775 235.959 192.79 236.6V239.518C192.79 240.1 192.865 240.562 193.013 240.906V241H191.876ZM190.077 240.174C190.417 240.174 190.74 240.086 191.044 239.91C191.349 239.734 191.57 239.506 191.706 239.225V237.924H190.857C189.529 237.924 188.865 238.312 188.865 239.09C188.865 239.43 188.978 239.695 189.204 239.887C189.431 240.078 189.722 240.174 190.077 240.174ZM197.674 235.633C197.51 235.605 197.332 235.592 197.141 235.592C196.43 235.592 195.947 235.895 195.694 236.5V241H194.61V234.66H195.664L195.682 235.393C196.037 234.826 196.541 234.543 197.194 234.543C197.404 234.543 197.565 234.57 197.674 234.625V235.633ZM201.31 241.117C200.45 241.117 199.751 240.836 199.212 240.273C198.673 239.707 198.403 238.951 198.403 238.006V237.807C198.403 237.178 198.522 236.617 198.761 236.125C199.003 235.629 199.339 235.242 199.769 234.965C200.202 234.684 200.671 234.543 201.175 234.543C201.999 234.543 202.64 234.814 203.097 235.357C203.554 235.9 203.782 236.678 203.782 237.689V238.141H199.487C199.503 238.766 199.685 239.271 200.032 239.658C200.384 240.041 200.829 240.232 201.368 240.232C201.751 240.232 202.075 240.154 202.341 239.998C202.606 239.842 202.839 239.635 203.038 239.377L203.7 239.893C203.169 240.709 202.372 241.117 201.31 241.117ZM201.175 235.434C200.737 235.434 200.37 235.594 200.073 235.914C199.776 236.23 199.593 236.676 199.522 237.25H202.698V237.168C202.667 236.617 202.519 236.191 202.253 235.891C201.987 235.586 201.628 235.434 201.175 235.434ZM209.284 234.66L209.319 235.457C209.804 234.848 210.436 234.543 211.218 234.543C212.557 234.543 213.233 235.299 213.245 236.811V241H212.161V236.805C212.157 236.348 212.052 236.01 211.845 235.791C211.641 235.572 211.323 235.463 210.889 235.463C210.538 235.463 210.229 235.557 209.964 235.744C209.698 235.932 209.491 236.178 209.343 236.482V241H208.259V234.66H209.284ZM214.713 237.771C214.713 237.15 214.834 236.592 215.076 236.096C215.322 235.6 215.662 235.217 216.095 234.947C216.533 234.678 217.031 234.543 217.59 234.543C218.453 234.543 219.15 234.842 219.681 235.439C220.216 236.037 220.484 236.832 220.484 237.824V237.9C220.484 238.518 220.365 239.072 220.127 239.564C219.892 240.053 219.554 240.434 219.113 240.707C218.675 240.98 218.172 241.117 217.601 241.117C216.742 241.117 216.045 240.818 215.509 240.221C214.978 239.623 214.713 238.832 214.713 237.848V237.771ZM215.802 237.9C215.802 238.604 215.965 239.168 216.289 239.594C216.617 240.02 217.054 240.232 217.601 240.232C218.152 240.232 218.59 240.018 218.914 239.588C219.238 239.154 219.4 238.549 219.4 237.771C219.4 237.076 219.234 236.514 218.902 236.084C218.574 235.65 218.136 235.434 217.59 235.434C217.054 235.434 216.623 235.646 216.295 236.072C215.966 236.498 215.802 237.107 215.802 237.9ZM228.974 241C228.912 240.875 228.861 240.652 228.822 240.332C228.318 240.855 227.716 241.117 227.017 241.117C226.392 241.117 225.878 240.941 225.476 240.59C225.078 240.234 224.878 239.785 224.878 239.242C224.878 238.582 225.128 238.07 225.628 237.707C226.132 237.34 226.839 237.156 227.749 237.156H228.804V236.658C228.804 236.279 228.691 235.979 228.464 235.756C228.238 235.529 227.904 235.416 227.462 235.416C227.076 235.416 226.751 235.514 226.49 235.709C226.228 235.904 226.097 236.141 226.097 236.418H225.007C225.007 236.102 225.119 235.797 225.341 235.504C225.568 235.207 225.872 234.973 226.255 234.801C226.642 234.629 227.066 234.543 227.527 234.543C228.257 234.543 228.83 234.727 229.244 235.094C229.658 235.457 229.872 235.959 229.888 236.6V239.518C229.888 240.1 229.962 240.562 230.111 240.906V241H228.974ZM227.175 240.174C227.515 240.174 227.837 240.086 228.142 239.91C228.447 239.734 228.667 239.506 228.804 239.225V237.924H227.955C226.626 237.924 225.962 238.312 225.962 239.09C225.962 239.43 226.076 239.695 226.302 239.887C226.529 240.078 226.82 240.174 227.175 240.174ZM234.25 240.232C234.637 240.232 234.975 240.115 235.264 239.881C235.553 239.646 235.713 239.354 235.744 239.002H236.77C236.75 239.365 236.625 239.711 236.395 240.039C236.164 240.367 235.856 240.629 235.469 240.824C235.086 241.02 234.68 241.117 234.25 241.117C233.387 241.117 232.7 240.83 232.188 240.256C231.68 239.678 231.426 238.889 231.426 237.889V237.707C231.426 237.09 231.539 236.541 231.766 236.061C231.993 235.58 232.317 235.207 232.739 234.941C233.164 234.676 233.666 234.543 234.244 234.543C234.955 234.543 235.545 234.756 236.014 235.182C236.487 235.607 236.739 236.16 236.77 236.84H235.744C235.713 236.43 235.557 236.094 235.276 235.832C234.998 235.566 234.655 235.434 234.244 235.434C233.694 235.434 233.266 235.633 232.961 236.031C232.66 236.426 232.51 236.998 232.51 237.748V237.953C232.51 238.684 232.66 239.246 232.961 239.641C233.262 240.035 233.692 240.232 234.25 240.232ZM239.579 233.125V234.66H240.763V235.498H239.579V239.43C239.579 239.684 239.632 239.875 239.738 240.004C239.843 240.129 240.023 240.191 240.277 240.191C240.402 240.191 240.573 240.168 240.792 240.121V241C240.507 241.078 240.23 241.117 239.96 241.117C239.476 241.117 239.111 240.971 238.864 240.678C238.618 240.385 238.495 239.969 238.495 239.43V235.498H237.341V234.66H238.495V233.125H239.579ZM243.332 241H242.248V234.66H243.332V241ZM242.16 232.979C242.16 232.803 242.213 232.654 242.318 232.533C242.428 232.412 242.588 232.352 242.799 232.352C243.01 232.352 243.17 232.412 243.279 232.533C243.389 232.654 243.443 232.803 243.443 232.979C243.443 233.154 243.389 233.301 243.279 233.418C243.17 233.535 243.01 233.594 242.799 233.594C242.588 233.594 242.428 233.535 242.318 233.418C242.213 233.301 242.16 233.154 242.16 232.979ZM244.905 237.771C244.905 237.15 245.026 236.592 245.269 236.096C245.515 235.6 245.854 235.217 246.288 234.947C246.726 234.678 247.224 234.543 247.782 234.543C248.645 234.543 249.343 234.842 249.874 235.439C250.409 236.037 250.677 236.832 250.677 237.824V237.9C250.677 238.518 250.558 239.072 250.319 239.564C250.085 240.053 249.747 240.434 249.306 240.707C248.868 240.98 248.364 241.117 247.794 241.117C246.935 241.117 246.237 240.818 245.702 240.221C245.171 239.623 244.905 238.832 244.905 237.848V237.771ZM245.995 237.9C245.995 238.604 246.157 239.168 246.481 239.594C246.81 240.02 247.247 240.232 247.794 240.232C248.345 240.232 248.782 240.018 249.106 239.588C249.431 239.154 249.593 238.549 249.593 237.771C249.593 237.076 249.427 236.514 249.095 236.084C248.767 235.65 248.329 235.434 247.782 235.434C247.247 235.434 246.815 235.646 246.487 236.072C246.159 236.498 245.995 237.107 245.995 237.9ZM253.181 234.66L253.217 235.457C253.701 234.848 254.334 234.543 255.115 234.543C256.455 234.543 257.131 235.299 257.142 236.811V241H256.058V236.805C256.055 236.348 255.949 236.01 255.742 235.791C255.539 235.572 255.221 235.463 254.787 235.463C254.435 235.463 254.127 235.557 253.861 235.744C253.596 235.932 253.389 236.178 253.24 236.482V241H252.156V234.66H253.181ZM263.171 241H262.088V234.66H263.171V241ZM262 232.979C262 232.803 262.052 232.654 262.158 232.533C262.267 232.412 262.427 232.352 262.638 232.352C262.849 232.352 263.009 232.412 263.119 232.533C263.228 232.654 263.283 232.803 263.283 232.979C263.283 233.154 263.228 233.301 263.119 233.418C263.009 233.535 262.849 233.594 262.638 233.594C262.427 233.594 262.267 233.535 262.158 233.418C262.052 233.301 262 233.154 262 232.979ZM266.502 233.125V234.66H267.686V235.498H266.502V239.43C266.502 239.684 266.555 239.875 266.661 240.004C266.766 240.129 266.946 240.191 267.2 240.191C267.325 240.191 267.497 240.168 267.715 240.121V241C267.43 241.078 267.153 241.117 266.883 241.117C266.399 241.117 266.034 240.971 265.788 240.678C265.541 240.385 265.418 239.969 265.418 239.43V235.498H264.264V234.66H265.418V233.125H266.502ZM271.708 241.117C270.849 241.117 270.15 240.836 269.611 240.273C269.072 239.707 268.802 238.951 268.802 238.006V237.807C268.802 237.178 268.921 236.617 269.16 236.125C269.402 235.629 269.738 235.242 270.167 234.965C270.601 234.684 271.07 234.543 271.574 234.543C272.398 234.543 273.038 234.814 273.495 235.357C273.952 235.9 274.181 236.678 274.181 237.689V238.141H269.886C269.902 238.766 270.083 239.271 270.431 239.658C270.783 240.041 271.228 240.232 271.767 240.232C272.15 240.232 272.474 240.154 272.74 239.998C273.005 239.842 273.238 239.635 273.437 239.377L274.099 239.893C273.568 240.709 272.771 241.117 271.708 241.117ZM271.574 235.434C271.136 235.434 270.769 235.594 270.472 235.914C270.175 236.23 269.992 236.676 269.921 237.25H273.097V237.168C273.066 236.617 272.917 236.191 272.652 235.891C272.386 235.586 272.027 235.434 271.574 235.434ZM276.58 234.66L276.61 235.363C277.074 234.816 277.701 234.543 278.49 234.543C279.377 234.543 279.981 234.883 280.301 235.562C280.512 235.258 280.785 235.012 281.121 234.824C281.461 234.637 281.862 234.543 282.323 234.543C283.713 234.543 284.42 235.279 284.444 236.752V241H283.36V236.816C283.36 236.363 283.256 236.025 283.049 235.803C282.842 235.576 282.494 235.463 282.006 235.463C281.604 235.463 281.27 235.584 281.004 235.826C280.739 236.064 280.584 236.387 280.541 236.793V241H279.451V236.846C279.451 235.924 279 235.463 278.098 235.463C277.387 235.463 276.901 235.766 276.639 236.371V241H275.555V234.66H276.58ZM289.896 239.318C289.896 239.025 289.784 238.799 289.562 238.639C289.343 238.475 288.958 238.334 288.407 238.217C287.86 238.1 287.425 237.959 287.101 237.795C286.78 237.631 286.542 237.436 286.386 237.209C286.234 236.982 286.157 236.713 286.157 236.4C286.157 235.881 286.376 235.441 286.814 235.082C287.255 234.723 287.818 234.543 288.501 234.543C289.22 234.543 289.802 234.729 290.247 235.1C290.696 235.471 290.921 235.945 290.921 236.523H289.831C289.831 236.227 289.704 235.971 289.45 235.756C289.2 235.541 288.884 235.434 288.501 235.434C288.107 235.434 287.798 235.52 287.575 235.691C287.353 235.863 287.241 236.088 287.241 236.365C287.241 236.627 287.345 236.824 287.552 236.957C287.759 237.09 288.132 237.217 288.671 237.338C289.214 237.459 289.653 237.604 289.989 237.771C290.325 237.939 290.573 238.143 290.734 238.381C290.898 238.615 290.98 238.902 290.98 239.242C290.98 239.809 290.753 240.264 290.3 240.607C289.847 240.947 289.259 241.117 288.536 241.117C288.028 241.117 287.579 241.027 287.189 240.848C286.798 240.668 286.491 240.418 286.269 240.098C286.05 239.773 285.941 239.424 285.941 239.049H287.025C287.044 239.412 287.189 239.701 287.458 239.916C287.732 240.127 288.091 240.232 288.536 240.232C288.946 240.232 289.275 240.15 289.521 239.986C289.771 239.818 289.896 239.596 289.896 239.318ZM299.522 241C299.46 240.875 299.409 240.652 299.37 240.332C298.866 240.855 298.265 241.117 297.565 241.117C296.94 241.117 296.427 240.941 296.024 240.59C295.626 240.234 295.427 239.785 295.427 239.242C295.427 238.582 295.677 238.07 296.177 237.707C296.681 237.34 297.388 237.156 298.298 237.156H299.352V236.658C299.352 236.279 299.239 235.979 299.013 235.756C298.786 235.529 298.452 235.416 298.011 235.416C297.624 235.416 297.3 235.514 297.038 235.709C296.776 235.904 296.645 236.141 296.645 236.418H295.556C295.556 236.102 295.667 235.797 295.89 235.504C296.116 235.207 296.421 234.973 296.804 234.801C297.19 234.629 297.614 234.543 298.075 234.543C298.806 234.543 299.378 234.727 299.792 235.094C300.206 235.457 300.421 235.959 300.436 236.6V239.518C300.436 240.1 300.511 240.562 300.659 240.906V241H299.522ZM297.724 240.174C298.063 240.174 298.386 240.086 298.69 239.91C298.995 239.734 299.216 239.506 299.352 239.225V237.924H298.503C297.175 237.924 296.511 238.312 296.511 239.09C296.511 239.43 296.624 239.695 296.85 239.887C297.077 240.078 297.368 240.174 297.724 240.174ZM305.947 239.318C305.947 239.025 305.836 238.799 305.613 238.639C305.394 238.475 305.01 238.334 304.459 238.217C303.912 238.1 303.476 237.959 303.152 237.795C302.832 237.631 302.594 237.436 302.437 237.209C302.285 236.982 302.209 236.713 302.209 236.4C302.209 235.881 302.428 235.441 302.865 235.082C303.306 234.723 303.869 234.543 304.553 234.543C305.271 234.543 305.853 234.729 306.299 235.1C306.748 235.471 306.972 235.945 306.972 236.523H305.883C305.883 236.227 305.756 235.971 305.502 235.756C305.252 235.541 304.935 235.434 304.553 235.434C304.158 235.434 303.849 235.52 303.627 235.691C303.404 235.863 303.293 236.088 303.293 236.365C303.293 236.627 303.396 236.824 303.603 236.957C303.81 237.09 304.183 237.217 304.722 237.338C305.265 237.459 305.705 237.604 306.041 237.771C306.377 237.939 306.625 238.143 306.785 238.381C306.949 238.615 307.031 238.902 307.031 239.242C307.031 239.809 306.804 240.264 306.351 240.607C305.898 240.947 305.31 241.117 304.588 241.117C304.08 241.117 303.631 241.027 303.24 240.848C302.849 240.668 302.543 240.418 302.32 240.098C302.101 239.773 301.992 239.424 301.992 239.049H303.076C303.095 239.412 303.24 239.701 303.51 239.916C303.783 240.127 304.142 240.232 304.588 240.232C304.998 240.232 305.326 240.15 305.572 239.986C305.822 239.818 305.947 239.596 305.947 239.318ZM312.255 239.318C312.255 239.025 312.143 238.799 311.921 238.639C311.702 238.475 311.317 238.334 310.766 238.217C310.219 238.1 309.784 237.959 309.46 237.795C309.139 237.631 308.901 237.436 308.745 237.209C308.592 236.982 308.516 236.713 308.516 236.4C308.516 235.881 308.735 235.441 309.173 235.082C309.614 234.723 310.176 234.543 310.86 234.543C311.579 234.543 312.161 234.729 312.606 235.1C313.055 235.471 313.28 235.945 313.28 236.523H312.19C312.19 236.227 312.063 235.971 311.809 235.756C311.559 235.541 311.243 235.434 310.86 235.434C310.465 235.434 310.157 235.52 309.934 235.691C309.712 235.863 309.6 236.088 309.6 236.365C309.6 236.627 309.704 236.824 309.911 236.957C310.118 237.09 310.491 237.217 311.03 237.338C311.573 237.459 312.012 237.604 312.348 237.771C312.684 237.939 312.932 238.143 313.092 238.381C313.256 238.615 313.339 238.902 313.339 239.242C313.339 239.809 313.112 240.264 312.659 240.607C312.206 240.947 311.618 241.117 310.895 241.117C310.387 241.117 309.938 241.027 309.548 240.848C309.157 240.668 308.85 240.418 308.628 240.098C308.409 239.773 308.299 239.424 308.299 239.049H309.383C309.403 239.412 309.548 239.701 309.817 239.916C310.09 240.127 310.45 240.232 310.895 240.232C311.305 240.232 311.633 240.15 311.88 239.986C312.13 239.818 312.255 239.596 312.255 239.318ZM316.048 241H314.964V234.66H316.048V241ZM314.876 232.979C314.876 232.803 314.929 232.654 315.035 232.533C315.144 232.412 315.304 232.352 315.515 232.352C315.726 232.352 315.886 232.412 315.996 232.533C316.105 232.654 316.16 232.803 316.16 232.979C316.16 233.154 316.105 233.301 315.996 233.418C315.886 233.535 315.726 233.594 315.515 233.594C315.304 233.594 315.144 233.535 315.035 233.418C314.929 233.301 314.876 233.154 314.876 232.979ZM317.651 237.777C317.651 236.789 317.879 236.004 318.336 235.422C318.793 234.836 319.399 234.543 320.153 234.543C320.926 234.543 321.53 234.816 321.963 235.363L322.016 234.66H323.006V240.848C323.006 241.668 322.762 242.314 322.274 242.787C321.789 243.26 321.137 243.496 320.317 243.496C319.86 243.496 319.413 243.398 318.975 243.203C318.538 243.008 318.204 242.74 317.973 242.4L318.536 241.75C319 242.324 319.569 242.611 320.241 242.611C320.768 242.611 321.178 242.463 321.471 242.166C321.768 241.869 321.916 241.451 321.916 240.912V240.367C321.483 240.867 320.891 241.117 320.141 241.117C319.399 241.117 318.797 240.818 318.336 240.221C317.879 239.623 317.651 238.809 317.651 237.777ZM318.741 237.9C318.741 238.615 318.887 239.178 319.18 239.588C319.473 239.994 319.883 240.197 320.411 240.197C321.094 240.197 321.596 239.887 321.916 239.266V236.371C321.584 235.766 321.086 235.463 320.422 235.463C319.895 235.463 319.483 235.668 319.186 236.078C318.889 236.488 318.741 237.096 318.741 237.9ZM325.792 234.66L325.827 235.457C326.312 234.848 326.945 234.543 327.726 234.543C329.066 234.543 329.741 235.299 329.753 236.811V241H328.669V236.805C328.665 236.348 328.56 236.01 328.353 235.791C328.15 235.572 327.831 235.463 327.398 235.463C327.046 235.463 326.738 235.557 326.472 235.744C326.206 235.932 325.999 236.178 325.851 236.482V241H324.767V234.66H325.792ZM334.139 241.117C333.279 241.117 332.58 240.836 332.041 240.273C331.502 239.707 331.233 238.951 331.233 238.006V237.807C331.233 237.178 331.352 236.617 331.59 236.125C331.832 235.629 332.168 235.242 332.598 234.965C333.031 234.684 333.5 234.543 334.004 234.543C334.828 234.543 335.469 234.814 335.926 235.357C336.383 235.9 336.611 236.678 336.611 237.689V238.141H332.317C332.332 238.766 332.514 239.271 332.861 239.658C333.213 240.041 333.658 240.232 334.197 240.232C334.58 240.232 334.904 240.154 335.17 239.998C335.436 239.842 335.668 239.635 335.867 239.377L336.529 239.893C335.998 240.709 335.201 241.117 334.139 241.117ZM334.004 235.434C333.567 235.434 333.199 235.594 332.902 235.914C332.606 236.23 332.422 236.676 332.352 237.25H335.527V237.168C335.496 236.617 335.348 236.191 335.082 235.891C334.817 235.586 334.457 235.434 334.004 235.434ZM337.728 237.777C337.728 236.805 337.958 236.023 338.419 235.434C338.88 234.84 339.483 234.543 340.23 234.543C340.972 234.543 341.56 234.797 341.993 235.305V232H343.077V241H342.081L342.028 240.32C341.595 240.852 340.991 241.117 340.218 241.117C339.483 241.117 338.884 240.816 338.419 240.215C337.958 239.613 337.728 238.828 337.728 237.859V237.777ZM338.812 237.9C338.812 238.619 338.96 239.182 339.257 239.588C339.554 239.994 339.964 240.197 340.487 240.197C341.175 240.197 341.677 239.889 341.993 239.271V236.359C341.669 235.762 341.171 235.463 340.499 235.463C339.968 235.463 339.554 235.668 339.257 236.078C338.96 236.488 338.812 237.096 338.812 237.9ZM344.908 240.432C344.908 240.244 344.963 240.088 345.072 239.963C345.185 239.838 345.353 239.775 345.576 239.775C345.799 239.775 345.967 239.838 346.08 239.963C346.197 240.088 346.256 240.244 346.256 240.432C346.256 240.611 346.197 240.762 346.08 240.883C345.967 241.004 345.799 241.064 345.576 241.064C345.353 241.064 345.185 241.004 345.072 240.883C344.963 240.762 344.908 240.611 344.908 240.432Z" fill="#8E8E93"/>
</svg>
