<svg width="636" height="472" viewBox="0 0 636 472" fill="none" xmlns="http://www.w3.org/2000/svg">
<rect width="636" height="472" rx="14" fill="#27283C"/>
<path d="M42.15 35.6895H36.6422L35.4899 39H32.9215L38.2926 24.7812H40.5094L45.8903 39H43.3121L42.15 35.6895ZM37.3356 33.6973H41.4567L39.3961 27.7988L37.3356 33.6973ZM53.4047 36.1289C53.4047 35.7057 53.2289 35.3835 52.8774 35.1621C52.5323 34.9408 51.9561 34.7454 51.1489 34.5762C50.3416 34.4069 49.6677 34.1921 49.1274 33.9316C47.9425 33.3587 47.35 32.5286 47.35 31.4414C47.35 30.5299 47.7341 29.7682 48.5024 29.1562C49.2706 28.5443 50.2472 28.2383 51.4321 28.2383C52.6951 28.2383 53.714 28.5508 54.4887 29.1758C55.2699 29.8008 55.6606 30.6113 55.6606 31.6074H53.2875C53.2875 31.1517 53.1183 30.7741 52.7797 30.4746C52.4412 30.1686 51.992 30.0156 51.4321 30.0156C50.9112 30.0156 50.4848 30.1361 50.1528 30.377C49.8272 30.6178 49.6645 30.9401 49.6645 31.3438C49.6645 31.7083 49.8175 31.9915 50.1235 32.1934C50.4295 32.3952 51.0479 32.6003 51.9789 32.8086C52.9099 33.0104 53.6391 33.2546 54.1664 33.541C54.7003 33.821 55.0942 34.1595 55.3481 34.5566C55.6085 34.9538 55.7387 35.4355 55.7387 36.002C55.7387 36.9525 55.3448 37.724 54.5571 38.3164C53.7693 38.9023 52.7374 39.1953 51.4614 39.1953C50.5955 39.1953 49.824 39.0391 49.1469 38.7266C48.4698 38.4141 47.9425 37.9844 47.5649 37.4375C47.1873 36.8906 46.9985 36.3014 46.9985 35.6699H49.3031C49.3357 36.2298 49.5473 36.6628 49.9379 36.9688C50.3285 37.2682 50.8461 37.418 51.4906 37.418C52.1156 37.418 52.5909 37.3008 52.9164 37.0664C53.242 36.8255 53.4047 36.513 53.4047 36.1289ZM63.9367 36.1289C63.9367 35.7057 63.761 35.3835 63.4094 35.1621C63.0643 34.9408 62.4882 34.7454 61.6809 34.5762C60.8736 34.4069 60.1998 34.1921 59.6594 33.9316C58.4745 33.3587 57.8821 32.5286 57.8821 31.4414C57.8821 30.5299 58.2662 29.7682 59.0344 29.1562C59.8026 28.5443 60.7792 28.2383 61.9641 28.2383C63.2271 28.2383 64.246 28.5508 65.0207 29.1758C65.802 29.8008 66.1926 30.6113 66.1926 31.6074H63.8196C63.8196 31.1517 63.6503 30.7741 63.3117 30.4746C62.9732 30.1686 62.524 30.0156 61.9641 30.0156C61.4433 30.0156 61.0168 30.1361 60.6848 30.377C60.3593 30.6178 60.1965 30.9401 60.1965 31.3438C60.1965 31.7083 60.3495 31.9915 60.6555 32.1934C60.9615 32.3952 61.58 32.6003 62.511 32.8086C63.442 33.0104 64.1711 33.2546 64.6985 33.541C65.2323 33.821 65.6262 34.1595 65.8801 34.5566C66.1405 34.9538 66.2707 35.4355 66.2707 36.002C66.2707 36.9525 65.8768 37.724 65.0891 38.3164C64.3013 38.9023 63.2694 39.1953 61.9934 39.1953C61.1275 39.1953 60.356 39.0391 59.6789 38.7266C59.0018 38.4141 58.4745 37.9844 58.0969 37.4375C57.7193 36.8906 57.5305 36.3014 57.5305 35.6699H59.8352C59.8677 36.2298 60.0793 36.6628 60.4699 36.9688C60.8606 37.2682 61.3781 37.418 62.0227 37.418C62.6477 37.418 63.1229 37.3008 63.4485 37.0664C63.774 36.8255 63.9367 36.513 63.9367 36.1289ZM71.0703 39H68.6973V28.4336H71.0703V39ZM68.5508 25.6895C68.5508 25.3249 68.6647 25.0221 68.8926 24.7812C69.127 24.5404 69.459 24.4199 69.8887 24.4199C70.3184 24.4199 70.6504 24.5404 70.8848 24.7812C71.1192 25.0221 71.2364 25.3249 71.2364 25.6895C71.2364 26.0475 71.1192 26.347 70.8848 26.5879C70.6504 26.8223 70.3184 26.9395 69.8887 26.9395C69.459 26.9395 69.127 26.8223 68.8926 26.5879C68.6647 26.347 68.5508 26.0475 68.5508 25.6895ZM73.4481 33.6387C73.4481 31.998 73.8322 30.6895 74.6004 29.7129C75.3752 28.7298 76.4005 28.2383 77.6766 28.2383C78.881 28.2383 79.8283 28.6582 80.5184 29.498L80.6258 28.4336H82.7645V38.6777C82.7645 40.0645 82.3315 41.1582 81.4656 41.959C80.6063 42.7598 79.4442 43.1602 77.9793 43.1602C77.2046 43.1602 76.4461 42.9974 75.7039 42.6719C74.9683 42.3529 74.4084 41.9329 74.0242 41.4121L75.1473 39.9863C75.8765 40.8522 76.7749 41.2852 77.8426 41.2852C78.6304 41.2852 79.2521 41.0703 79.7078 40.6406C80.1636 40.2174 80.3914 39.5924 80.3914 38.7656V38.0527C79.7078 38.8145 78.7964 39.1953 77.6571 39.1953C76.4201 39.1953 75.4077 38.7038 74.6199 37.7207C73.8387 36.7376 73.4481 35.377 73.4481 33.6387ZM75.8114 33.8438C75.8114 34.9049 76.0262 35.7415 76.4559 36.3535C76.8921 36.959 77.4943 37.2617 78.2625 37.2617C79.2196 37.2617 79.9292 36.8516 80.3914 36.0312V31.3828C79.9422 30.582 79.2391 30.1816 78.2821 30.1816C77.5008 30.1816 76.8921 30.4909 76.4559 31.1094C76.0262 31.7279 75.8114 32.6393 75.8114 33.8438ZM87.6129 28.4336L87.6813 29.6543C88.4625 28.7103 89.4879 28.2383 90.7574 28.2383C92.958 28.2383 94.0778 29.498 94.1168 32.0176V39H91.7438V32.1543C91.7438 31.4837 91.5973 30.9889 91.3043 30.6699C91.0179 30.3444 90.5459 30.1816 89.8883 30.1816C88.9313 30.1816 88.2184 30.6146 87.7496 31.4805V39H85.3766V28.4336H87.6129ZM101.397 39.1953C99.893 39.1953 98.6723 38.7233 97.7348 37.7793C96.8038 36.8288 96.3383 35.5658 96.3383 33.9902V33.6973C96.3383 32.6426 96.5401 31.7018 96.9438 30.875C97.3539 30.0417 97.9268 29.3939 98.6625 28.9316C99.3982 28.4694 100.219 28.2383 101.123 28.2383C102.562 28.2383 103.672 28.6973 104.454 29.6152C105.241 30.5332 105.635 31.832 105.635 33.5117V34.4688H98.7309C98.8025 35.3411 99.0922 36.0312 99.6 36.5391C100.114 37.0469 100.759 37.3008 101.534 37.3008C102.621 37.3008 103.506 36.8613 104.19 35.9824L105.469 37.2031C105.046 37.8346 104.48 38.3262 103.77 38.6777C103.067 39.0228 102.276 39.1953 101.397 39.1953ZM101.114 30.1426C100.463 30.1426 99.9353 30.3704 99.5317 30.8262C99.1345 31.2819 98.8806 31.9167 98.7699 32.7305H103.291V32.5547C103.239 31.7604 103.028 31.1615 102.657 30.7578C102.286 30.3477 101.771 30.1426 101.114 30.1426ZM107.241 33.6387C107.241 32.0111 107.619 30.7057 108.374 29.7227C109.129 28.7331 110.142 28.2383 111.411 28.2383C112.531 28.2383 113.436 28.6289 114.126 29.4102V24H116.499V39H114.351L114.234 37.9062C113.524 38.7656 112.577 39.1953 111.392 39.1953C110.155 39.1953 109.152 38.6973 108.384 37.7012C107.622 36.7051 107.241 35.3509 107.241 33.6387ZM109.614 33.8438C109.614 34.918 109.82 35.7578 110.23 36.3633C110.646 36.9622 111.236 37.2617 111.997 37.2617C112.967 37.2617 113.677 36.8288 114.126 35.9629V31.4512C113.69 30.6048 112.987 30.1816 112.017 30.1816C111.249 30.1816 110.656 30.4876 110.239 31.0996C109.823 31.7051 109.614 32.6198 109.614 33.8438ZM129.809 33.5215H127.055V39H124.585V24.7812H129.585C131.225 24.7812 132.492 25.1491 133.384 25.8848C134.276 26.6204 134.722 27.6849 134.722 29.0781C134.722 30.0286 134.49 30.8262 134.028 31.4707C133.572 32.1087 132.934 32.6003 132.114 32.9453L135.307 38.873V39H132.661L129.809 33.5215ZM127.055 31.5391H129.595C130.428 31.5391 131.079 31.3307 131.548 30.9141C132.016 30.4909 132.251 29.9147 132.251 29.1855C132.251 28.4238 132.033 27.8346 131.597 27.418C131.167 27.0013 130.522 26.7865 129.663 26.7734H127.055V31.5391ZM139.56 39H137.187V28.4336H139.56V39ZM137.041 25.6895C137.041 25.3249 137.155 25.0221 137.382 24.7812C137.617 24.5404 137.949 24.4199 138.379 24.4199C138.808 24.4199 139.14 24.5404 139.375 24.7812C139.609 25.0221 139.726 25.3249 139.726 25.6895C139.726 26.0475 139.609 26.347 139.375 26.5879C139.14 26.8223 138.808 26.9395 138.379 26.9395C137.949 26.9395 137.617 26.8223 137.382 26.5879C137.155 26.347 137.041 26.0475 137.041 25.6895ZM148.276 36.1289C148.276 35.7057 148.1 35.3835 147.748 35.1621C147.403 34.9408 146.827 34.7454 146.02 34.5762C145.213 34.4069 144.539 34.1921 143.998 33.9316C142.814 33.3587 142.221 32.5286 142.221 31.4414C142.221 30.5299 142.605 29.7682 143.373 29.1562C144.142 28.5443 145.118 28.2383 146.303 28.2383C147.566 28.2383 148.585 28.5508 149.36 29.1758C150.141 29.8008 150.532 30.6113 150.532 31.6074H148.159C148.159 31.1517 147.989 30.7741 147.651 30.4746C147.312 30.1686 146.863 30.0156 146.303 30.0156C145.782 30.0156 145.356 30.1361 145.024 30.377C144.698 30.6178 144.536 30.9401 144.536 31.3438C144.536 31.7083 144.689 31.9915 144.995 32.1934C145.301 32.3952 145.919 32.6003 146.85 32.8086C147.781 33.0104 148.51 33.2546 149.038 33.541C149.571 33.821 149.965 34.1595 150.219 34.5566C150.48 34.9538 150.61 35.4355 150.61 36.002C150.61 36.9525 150.216 37.724 149.428 38.3164C148.64 38.9023 147.608 39.1953 146.332 39.1953C145.467 39.1953 144.695 39.0391 144.018 38.7266C143.341 38.4141 142.814 37.9844 142.436 37.4375C142.058 36.8906 141.87 36.3014 141.87 35.6699H144.174C144.207 36.2298 144.418 36.6628 144.809 36.9688C145.2 37.2682 145.717 37.418 146.362 37.418C146.987 37.418 147.462 37.3008 147.788 37.0664C148.113 36.8255 148.276 36.513 148.276 36.1289ZM156.318 34.4688L155.263 35.5527V39H152.89V24H155.263V32.6523L156.005 31.7246L158.925 28.4336H161.777L157.851 32.8379L162.197 39H159.452L156.318 34.4688ZM169.457 36.1289C169.457 35.7057 169.281 35.3835 168.93 35.1621C168.585 34.9408 168.008 34.7454 167.201 34.5762C166.394 34.4069 165.72 34.1921 165.18 33.9316C163.995 33.3587 163.402 32.5286 163.402 31.4414C163.402 30.5299 163.786 29.7682 164.555 29.1562C165.323 28.5443 166.3 28.2383 167.484 28.2383C168.747 28.2383 169.766 28.5508 170.541 29.1758C171.322 29.8008 171.713 30.6113 171.713 31.6074H169.34C169.34 31.1517 169.171 30.7741 168.832 30.4746C168.494 30.1686 168.044 30.0156 167.484 30.0156C166.964 30.0156 166.537 30.1361 166.205 30.377C165.88 30.6178 165.717 30.9401 165.717 31.3438C165.717 31.7083 165.87 31.9915 166.176 32.1934C166.482 32.3952 167.1 32.6003 168.031 32.8086C168.962 33.0104 169.691 33.2546 170.219 33.541C170.753 33.821 171.147 34.1595 171.4 34.5566C171.661 34.9538 171.791 35.4355 171.791 36.002C171.791 36.9525 171.397 37.724 170.609 38.3164C169.822 38.9023 168.79 39.1953 167.514 39.1953C166.648 39.1953 165.876 39.0391 165.199 38.7266C164.522 38.4141 163.995 37.9844 163.617 37.4375C163.24 36.8906 163.051 36.3014 163.051 35.6699H165.355C165.388 36.2298 165.6 36.6628 165.99 36.9688C166.381 37.2682 166.898 37.418 167.543 37.418C168.168 37.418 168.643 37.3008 168.969 37.0664C169.294 36.8255 169.457 36.513 169.457 36.1289Z" fill="#C7C7C7"/>
<path d="M225.19 232.395H222.448V240H221.328V232.395H218.592V231.469H225.19V232.395ZM227.49 234.428C227.97 233.838 228.595 233.543 229.365 233.543C230.704 233.543 231.38 234.299 231.392 235.811V240H230.308V235.805C230.304 235.348 230.198 235.01 229.991 234.791C229.788 234.572 229.47 234.463 229.036 234.463C228.685 234.463 228.376 234.557 228.111 234.744C227.845 234.932 227.638 235.178 227.49 235.482V240H226.406V231H227.49V234.428ZM235.766 240.117C234.906 240.117 234.207 239.836 233.668 239.273C233.129 238.707 232.86 237.951 232.86 237.006V236.807C232.86 236.178 232.979 235.617 233.217 235.125C233.459 234.629 233.795 234.242 234.225 233.965C234.658 233.684 235.127 233.543 235.631 233.543C236.455 233.543 237.096 233.814 237.553 234.357C238.01 234.9 238.238 235.678 238.238 236.689V237.141H233.943C233.959 237.766 234.141 238.271 234.488 238.658C234.84 239.041 235.285 239.232 235.824 239.232C236.207 239.232 236.531 239.154 236.797 238.998C237.063 238.842 237.295 238.635 237.494 238.377L238.156 238.893C237.625 239.709 236.828 240.117 235.766 240.117ZM235.631 234.434C235.193 234.434 234.826 234.594 234.529 234.914C234.233 235.23 234.049 235.676 233.979 236.25H237.154V236.168C237.123 235.617 236.975 235.191 236.709 234.891C236.443 234.586 236.084 234.434 235.631 234.434ZM242.683 234.633C242.519 234.605 242.341 234.592 242.149 234.592C241.438 234.592 240.956 234.895 240.702 235.5V240H239.618V233.66H240.673L240.69 234.393C241.046 233.826 241.55 233.543 242.202 233.543C242.413 233.543 242.573 233.57 242.683 233.625V234.633ZM246.318 240.117C245.459 240.117 244.76 239.836 244.221 239.273C243.682 238.707 243.412 237.951 243.412 237.006V236.807C243.412 236.178 243.531 235.617 243.769 235.125C244.012 234.629 244.348 234.242 244.777 233.965C245.211 233.684 245.68 233.543 246.183 233.543C247.008 233.543 247.648 233.814 248.105 234.357C248.562 234.9 248.791 235.678 248.791 236.689V237.141H244.496C244.512 237.766 244.693 238.271 245.041 238.658C245.392 239.041 245.838 239.232 246.377 239.232C246.76 239.232 247.084 239.154 247.35 238.998C247.615 238.842 247.848 238.635 248.047 238.377L248.709 238.893C248.178 239.709 247.381 240.117 246.318 240.117ZM246.183 234.434C245.746 234.434 245.379 234.594 245.082 234.914C244.785 235.23 244.601 235.676 244.531 236.25H247.707V236.168C247.676 235.617 247.527 235.191 247.262 234.891C246.996 234.586 246.637 234.434 246.183 234.434ZM257.181 240C257.119 239.875 257.068 239.652 257.029 239.332C256.525 239.855 255.923 240.117 255.224 240.117C254.599 240.117 254.086 239.941 253.683 239.59C253.285 239.234 253.086 238.785 253.086 238.242C253.086 237.582 253.336 237.07 253.836 236.707C254.34 236.34 255.047 236.156 255.957 236.156H257.011V235.658C257.011 235.279 256.898 234.979 256.672 234.756C256.445 234.529 256.111 234.416 255.67 234.416C255.283 234.416 254.959 234.514 254.697 234.709C254.435 234.904 254.304 235.141 254.304 235.418H253.215C253.215 235.102 253.326 234.797 253.548 234.504C253.775 234.207 254.08 233.973 254.463 233.801C254.849 233.629 255.273 233.543 255.734 233.543C256.465 233.543 257.037 233.727 257.451 234.094C257.865 234.457 258.08 234.959 258.095 235.6V238.518C258.095 239.1 258.17 239.562 258.318 239.906V240H257.181ZM255.382 239.174C255.722 239.174 256.045 239.086 256.349 238.91C256.654 238.734 256.875 238.506 257.011 238.225V236.924H256.162C254.834 236.924 254.17 237.312 254.17 238.09C254.17 238.43 254.283 238.695 254.509 238.887C254.736 239.078 255.027 239.174 255.382 239.174ZM262.979 234.633C262.815 234.605 262.637 234.592 262.446 234.592C261.735 234.592 261.252 234.895 260.999 235.5V240H259.915V233.66H260.969L260.987 234.393C261.342 233.826 261.846 233.543 262.499 233.543C262.71 233.543 262.87 233.57 262.979 233.625V234.633ZM266.615 240.117C265.755 240.117 265.056 239.836 264.517 239.273C263.978 238.707 263.708 237.951 263.708 237.006V236.807C263.708 236.178 263.828 235.617 264.066 235.125C264.308 234.629 264.644 234.242 265.074 233.965C265.507 233.684 265.976 233.543 266.48 233.543C267.304 233.543 267.945 233.814 268.402 234.357C268.859 234.9 269.087 235.678 269.087 236.689V237.141H264.792C264.808 237.766 264.99 238.271 265.337 238.658C265.689 239.041 266.134 239.232 266.673 239.232C267.056 239.232 267.38 239.154 267.646 238.998C267.912 238.842 268.144 238.635 268.343 238.377L269.005 238.893C268.474 239.709 267.677 240.117 266.615 240.117ZM266.48 234.434C266.042 234.434 265.675 234.594 265.378 234.914C265.081 235.23 264.898 235.676 264.828 236.25H268.003V236.168C267.972 235.617 267.824 235.191 267.558 234.891C267.292 234.586 266.933 234.434 266.48 234.434ZM274.589 233.66L274.624 234.457C275.109 233.848 275.741 233.543 276.523 233.543C277.862 233.543 278.538 234.299 278.55 235.811V240H277.466V235.805C277.462 235.348 277.357 235.01 277.15 234.791C276.946 234.572 276.628 234.463 276.195 234.463C275.843 234.463 275.534 234.557 275.269 234.744C275.003 234.932 274.796 235.178 274.648 235.482V240H273.564V233.66H274.589ZM280.018 236.771C280.018 236.15 280.139 235.592 280.381 235.096C280.627 234.6 280.967 234.217 281.4 233.947C281.838 233.678 282.336 233.543 282.895 233.543C283.758 233.543 284.455 233.842 284.986 234.439C285.522 235.037 285.789 235.832 285.789 236.824V236.9C285.789 237.518 285.67 238.072 285.432 238.564C285.197 239.053 284.859 239.434 284.418 239.707C283.981 239.98 283.477 240.117 282.906 240.117C282.047 240.117 281.35 239.818 280.815 239.221C280.283 238.623 280.018 237.832 280.018 236.848V236.771ZM281.107 236.9C281.107 237.604 281.27 238.168 281.594 238.594C281.922 239.02 282.359 239.232 282.906 239.232C283.457 239.232 283.895 239.018 284.219 238.588C284.543 238.154 284.705 237.549 284.705 236.771C284.705 236.076 284.539 235.514 284.207 235.084C283.879 234.65 283.441 234.434 282.895 234.434C282.359 234.434 281.928 234.646 281.6 235.072C281.272 235.498 281.107 236.107 281.107 236.9ZM293.43 234.633C293.265 234.605 293.088 234.592 292.896 234.592C292.185 234.592 291.703 234.895 291.449 235.5V240H290.365V233.66H291.42L291.437 234.393C291.793 233.826 292.297 233.543 292.949 233.543C293.16 233.543 293.32 233.57 293.43 233.625V234.633ZM295.729 240H294.645V233.66H295.729V240ZM294.557 231.979C294.557 231.803 294.61 231.654 294.716 231.533C294.825 231.412 294.985 231.352 295.196 231.352C295.407 231.352 295.567 231.412 295.676 231.533C295.786 231.654 295.841 231.803 295.841 231.979C295.841 232.154 295.786 232.301 295.676 232.418C295.567 232.535 295.407 232.594 295.196 232.594C294.985 232.594 294.825 232.535 294.716 232.418C294.61 232.301 294.557 232.154 294.557 231.979ZM301.281 238.318C301.281 238.025 301.17 237.799 300.947 237.639C300.728 237.475 300.343 237.334 299.793 237.217C299.246 237.1 298.81 236.959 298.486 236.795C298.166 236.631 297.927 236.436 297.771 236.209C297.619 235.982 297.543 235.713 297.543 235.4C297.543 234.881 297.761 234.441 298.199 234.082C298.64 233.723 299.203 233.543 299.886 233.543C300.605 233.543 301.187 233.729 301.632 234.1C302.082 234.471 302.306 234.945 302.306 235.523H301.216C301.216 235.227 301.089 234.971 300.836 234.756C300.586 234.541 300.269 234.434 299.886 234.434C299.492 234.434 299.183 234.52 298.961 234.691C298.738 234.863 298.627 235.088 298.627 235.365C298.627 235.627 298.73 235.824 298.937 235.957C299.144 236.09 299.517 236.217 300.056 236.338C300.599 236.459 301.039 236.604 301.375 236.771C301.711 236.939 301.959 237.143 302.119 237.381C302.283 237.615 302.365 237.902 302.365 238.242C302.365 238.809 302.138 239.264 301.685 239.607C301.232 239.947 300.644 240.117 299.921 240.117C299.414 240.117 298.964 240.027 298.574 239.848C298.183 239.668 297.877 239.418 297.654 239.098C297.435 238.773 297.326 238.424 297.326 238.049H298.41C298.429 238.412 298.574 238.701 298.843 238.916C299.117 239.127 299.476 239.232 299.921 239.232C300.332 239.232 300.66 239.15 300.906 238.986C301.156 238.818 301.281 238.596 301.281 238.318ZM305.666 237.064L304.987 237.773V240H303.903V231H304.987V236.443L305.567 235.746L307.541 233.66H308.86L306.393 236.309L309.147 240H307.875L305.666 237.064ZM313.79 238.318C313.79 238.025 313.679 237.799 313.456 237.639C313.238 237.475 312.853 237.334 312.302 237.217C311.755 237.1 311.32 236.959 310.995 236.795C310.675 236.631 310.437 236.436 310.281 236.209C310.128 235.982 310.052 235.713 310.052 235.4C310.052 234.881 310.271 234.441 310.708 234.082C311.15 233.723 311.712 233.543 312.396 233.543C313.115 233.543 313.697 233.729 314.142 234.1C314.591 234.471 314.816 234.945 314.816 235.523H313.726C313.726 235.227 313.599 234.971 313.345 234.756C313.095 234.541 312.779 234.434 312.396 234.434C312.001 234.434 311.693 234.52 311.47 234.691C311.247 234.863 311.136 235.088 311.136 235.365C311.136 235.627 311.24 235.824 311.447 235.957C311.654 236.09 312.027 236.217 312.566 236.338C313.109 236.459 313.548 236.604 313.884 236.771C314.22 236.939 314.468 237.143 314.628 237.381C314.792 237.615 314.874 237.902 314.874 238.242C314.874 238.809 314.648 239.264 314.195 239.607C313.742 239.947 313.154 240.117 312.431 240.117C311.923 240.117 311.474 240.027 311.083 239.848C310.693 239.668 310.386 239.418 310.163 239.098C309.945 238.773 309.835 238.424 309.835 238.049H310.919C310.939 238.412 311.083 238.701 311.353 238.916C311.626 239.127 311.986 239.232 312.431 239.232C312.841 239.232 313.169 239.15 313.415 238.986C313.665 238.818 313.79 238.596 313.79 238.318ZM323.417 240C323.355 239.875 323.304 239.652 323.265 239.332C322.761 239.855 322.159 240.117 321.46 240.117C320.835 240.117 320.321 239.941 319.919 239.59C319.521 239.234 319.321 238.785 319.321 238.242C319.321 237.582 319.571 237.07 320.071 236.707C320.575 236.34 321.282 236.156 322.192 236.156H323.247V235.658C323.247 235.279 323.134 234.979 322.907 234.756C322.681 234.529 322.347 234.416 321.905 234.416C321.519 234.416 321.194 234.514 320.933 234.709C320.671 234.904 320.54 235.141 320.54 235.418H319.45C319.45 235.102 319.562 234.797 319.784 234.504C320.011 234.207 320.316 233.973 320.698 233.801C321.085 233.629 321.509 233.543 321.97 233.543C322.7 233.543 323.273 233.727 323.687 234.094C324.101 234.457 324.316 234.959 324.331 235.6V238.518C324.331 239.1 324.405 239.562 324.554 239.906V240H323.417ZM321.618 239.174C321.958 239.174 322.28 239.086 322.585 238.91C322.89 238.734 323.11 238.506 323.247 238.225V236.924H322.398C321.069 236.924 320.405 237.312 320.405 238.09C320.405 238.43 320.519 238.695 320.745 238.887C320.972 239.078 321.263 239.174 321.618 239.174ZM329.842 238.318C329.842 238.025 329.73 237.799 329.508 237.639C329.289 237.475 328.904 237.334 328.353 237.217C327.807 237.1 327.371 236.959 327.047 236.795C326.727 236.631 326.488 236.436 326.332 236.209C326.18 235.982 326.103 235.713 326.103 235.4C326.103 234.881 326.322 234.441 326.76 234.082C327.201 233.723 327.764 233.543 328.447 233.543C329.166 233.543 329.748 233.729 330.193 234.1C330.643 234.471 330.867 234.945 330.867 235.523H329.777C329.777 235.227 329.65 234.971 329.396 234.756C329.146 234.541 328.83 234.434 328.447 234.434C328.053 234.434 327.744 234.52 327.521 234.691C327.299 234.863 327.187 235.088 327.187 235.365C327.187 235.627 327.291 235.824 327.498 235.957C327.705 236.09 328.078 236.217 328.617 236.338C329.16 236.459 329.6 236.604 329.936 236.771C330.271 236.939 330.52 237.143 330.68 237.381C330.844 237.615 330.926 237.902 330.926 238.242C330.926 238.809 330.699 239.264 330.246 239.607C329.793 239.947 329.205 240.117 328.482 240.117C327.975 240.117 327.525 240.027 327.135 239.848C326.744 239.668 326.437 239.418 326.215 239.098C325.996 238.773 325.887 238.424 325.887 238.049H326.971C326.99 238.412 327.135 238.701 327.404 238.916C327.678 239.127 328.037 239.232 328.482 239.232C328.893 239.232 329.221 239.15 329.467 238.986C329.717 238.818 329.842 238.596 329.842 238.318ZM336.149 238.318C336.149 238.025 336.038 237.799 335.815 237.639C335.597 237.475 335.212 237.334 334.661 237.217C334.114 237.1 333.679 236.959 333.354 236.795C333.034 236.631 332.796 236.436 332.64 236.209C332.487 235.982 332.411 235.713 332.411 235.4C332.411 234.881 332.63 234.441 333.067 234.082C333.509 233.723 334.071 233.543 334.755 233.543C335.473 233.543 336.056 233.729 336.501 234.1C336.95 234.471 337.175 234.945 337.175 235.523H336.085C336.085 235.227 335.958 234.971 335.704 234.756C335.454 234.541 335.138 234.434 334.755 234.434C334.36 234.434 334.052 234.52 333.829 234.691C333.606 234.863 333.495 235.088 333.495 235.365C333.495 235.627 333.598 235.824 333.806 235.957C334.013 236.09 334.386 236.217 334.925 236.338C335.468 236.459 335.907 236.604 336.243 236.771C336.579 236.939 336.827 237.143 336.987 237.381C337.151 237.615 337.233 237.902 337.233 238.242C337.233 238.809 337.007 239.264 336.554 239.607C336.1 239.947 335.513 240.117 334.79 240.117C334.282 240.117 333.833 240.027 333.442 239.848C333.052 239.668 332.745 239.418 332.522 239.098C332.304 238.773 332.194 238.424 332.194 238.049H333.278C333.298 238.412 333.442 238.701 333.712 238.916C333.985 239.127 334.345 239.232 334.79 239.232C335.2 239.232 335.528 239.15 335.774 238.986C336.024 238.818 336.149 238.596 336.149 238.318ZM339.943 240H338.859V233.66H339.943V240ZM338.771 231.979C338.771 231.803 338.824 231.654 338.929 231.533C339.039 231.412 339.199 231.352 339.41 231.352C339.621 231.352 339.781 231.412 339.89 231.533C340 231.654 340.054 231.803 340.054 231.979C340.054 232.154 340 232.301 339.89 232.418C339.781 232.535 339.621 232.594 339.41 232.594C339.199 232.594 339.039 232.535 338.929 232.418C338.824 232.301 338.771 232.154 338.771 231.979ZM341.546 236.777C341.546 235.789 341.774 235.004 342.231 234.422C342.688 233.836 343.294 233.543 344.047 233.543C344.821 233.543 345.424 233.816 345.858 234.363L345.911 233.66H346.901V239.848C346.901 240.668 346.657 241.314 346.169 241.787C345.684 242.26 345.032 242.496 344.212 242.496C343.755 242.496 343.307 242.398 342.87 242.203C342.432 242.008 342.098 241.74 341.868 241.4L342.43 240.75C342.895 241.324 343.463 241.611 344.135 241.611C344.663 241.611 345.073 241.463 345.366 241.166C345.663 240.869 345.811 240.451 345.811 239.912V239.367C345.378 239.867 344.786 240.117 344.036 240.117C343.294 240.117 342.692 239.818 342.231 239.221C341.774 238.623 341.546 237.809 341.546 236.777ZM342.635 236.9C342.635 237.615 342.782 238.178 343.075 238.588C343.368 238.994 343.778 239.197 344.305 239.197C344.989 239.197 345.491 238.887 345.811 238.266V235.371C345.479 234.766 344.981 234.463 344.317 234.463C343.79 234.463 343.378 234.668 343.081 235.078C342.784 235.488 342.635 236.096 342.635 236.9ZM349.687 233.66L349.722 234.457C350.207 233.848 350.839 233.543 351.621 233.543C352.96 233.543 353.636 234.299 353.648 235.811V240H352.564V235.805C352.56 235.348 352.455 235.01 352.248 234.791C352.044 234.572 351.726 234.463 351.292 234.463C350.941 234.463 350.632 234.557 350.367 234.744C350.101 234.932 349.894 235.178 349.746 235.482V240H348.662V233.66H349.687ZM358.034 240.117C357.174 240.117 356.475 239.836 355.936 239.273C355.397 238.707 355.127 237.951 355.127 237.006V236.807C355.127 236.178 355.246 235.617 355.485 235.125C355.727 234.629 356.063 234.242 356.493 233.965C356.926 233.684 357.395 233.543 357.899 233.543C358.723 233.543 359.364 233.814 359.821 234.357C360.278 234.9 360.506 235.678 360.506 236.689V237.141H356.211C356.227 237.766 356.409 238.271 356.756 238.658C357.108 239.041 357.553 239.232 358.092 239.232C358.475 239.232 358.799 239.154 359.065 238.998C359.33 238.842 359.563 238.635 359.762 238.377L360.424 238.893C359.893 239.709 359.096 240.117 358.034 240.117ZM357.899 234.434C357.461 234.434 357.094 234.594 356.797 234.914C356.5 235.23 356.317 235.676 356.246 236.25H359.422V236.168C359.391 235.617 359.243 235.191 358.977 234.891C358.711 234.586 358.352 234.434 357.899 234.434ZM361.622 236.777C361.622 235.805 361.853 235.023 362.314 234.434C362.775 233.84 363.378 233.543 364.124 233.543C364.866 233.543 365.454 233.797 365.888 234.305V231H366.972V240H365.976L365.923 239.32C365.49 239.852 364.886 240.117 364.113 240.117C363.378 240.117 362.779 239.816 362.314 239.215C361.853 238.613 361.622 237.828 361.622 236.859V236.777ZM362.706 236.9C362.706 237.619 362.855 238.182 363.152 238.588C363.448 238.994 363.859 239.197 364.382 239.197C365.07 239.197 365.572 238.889 365.888 238.271V235.359C365.564 234.762 365.066 234.463 364.394 234.463C363.863 234.463 363.448 234.668 363.152 235.078C362.855 235.488 362.706 236.096 362.706 236.9ZM368.803 239.432C368.803 239.244 368.858 239.088 368.967 238.963C369.08 238.838 369.248 238.775 369.471 238.775C369.693 238.775 369.861 238.838 369.975 238.963C370.092 239.088 370.151 239.244 370.151 239.432C370.151 239.611 370.092 239.762 369.975 239.883C369.861 240.004 369.693 240.064 369.471 240.064C369.248 240.064 369.08 240.004 368.967 239.883C368.858 239.762 368.803 239.611 368.803 239.432Z" fill="#8E8E93"/>
</svg>
