<svg width="472" height="472" viewBox="0 0 472 472" fill="none" xmlns="http://www.w3.org/2000/svg">
<rect width="472" height="472" rx="14" fill="#27283C"/>
<path d="M36.7832 31.5V32.2812C36.7832 33.3555 36.6432 34.319 36.3633 35.1719C36.0833 36.0247 35.6829 36.7507 35.1621 37.3496C34.6478 37.9486 34.0293 38.4076 33.3066 38.7266C32.584 39.0391 31.7832 39.1953 30.9043 39.1953C30.0319 39.1953 29.2344 39.0391 28.5117 38.7266C27.7956 38.4076 27.1738 37.9486 26.6465 37.3496C26.1191 36.7507 25.709 36.0247 25.416 35.1719C25.1296 34.319 24.9863 33.3555 24.9863 32.2812V31.5C24.9863 30.4258 25.1296 29.4655 25.416 28.6191C25.7025 27.7663 26.1061 27.0404 26.627 26.4414C27.1543 25.8359 27.776 25.377 28.4922 25.0645C29.2148 24.7454 30.0124 24.5859 30.8848 24.5859C31.7637 24.5859 32.5645 24.7454 33.2871 25.0645C34.0098 25.377 34.6315 25.8359 35.1523 26.4414C35.6732 27.0404 36.0736 27.7663 36.3535 28.6191C36.64 29.4655 36.7832 30.4258 36.7832 31.5ZM34.332 32.2812V31.4805C34.332 30.6862 34.2539 29.9863 34.0977 29.3809C33.9479 28.7689 33.7233 28.2578 33.4238 27.8477C33.1309 27.431 32.7695 27.1185 32.3398 26.9102C31.9102 26.6953 31.4251 26.5879 30.8848 26.5879C30.3444 26.5879 29.8626 26.6953 29.4395 26.9102C29.0163 27.1185 28.6549 27.431 28.3555 27.8477C28.0625 28.2578 27.8379 28.7689 27.6816 29.3809C27.5254 29.9863 27.4473 30.6862 27.4473 31.4805V32.2812C27.4473 33.0755 27.5254 33.7786 27.6816 34.3906C27.8379 35.0026 28.0658 35.5202 28.3652 35.9434C28.6712 36.36 29.0358 36.6758 29.459 36.8906C29.8822 37.099 30.3639 37.2031 30.9043 37.2031C31.4512 37.2031 31.9362 37.099 32.3594 36.8906C32.7826 36.6758 33.1406 36.36 33.4336 35.9434C33.7266 35.5202 33.9479 35.0026 34.0977 34.3906C34.2539 33.7786 34.332 33.0755 34.332 32.2812ZM41.5633 30.4453V39H39.2098V28.4336H41.4559L41.5633 30.4453ZM44.7957 28.3652L44.7762 30.5527C44.6329 30.5267 44.4767 30.5072 44.3074 30.4941C44.1447 30.4811 43.9819 30.4746 43.8191 30.4746C43.4155 30.4746 43.0607 30.5332 42.7547 30.6504C42.4487 30.7611 42.1915 30.9238 41.9832 31.1387C41.7814 31.347 41.6251 31.6009 41.5145 31.9004C41.4038 32.1999 41.3387 32.5352 41.3191 32.9062L40.782 32.9453C40.782 32.2812 40.8471 31.666 40.9773 31.0996C41.1076 30.5332 41.3029 30.0352 41.5633 29.6055C41.8302 29.1758 42.1622 28.8405 42.5594 28.5996C42.963 28.3587 43.4285 28.2383 43.9559 28.2383C44.0991 28.2383 44.2521 28.2513 44.4148 28.2773C44.5841 28.3034 44.7111 28.3327 44.7957 28.3652ZM52.7203 36.8125V24H55.0836V39H52.9449L52.7203 36.8125ZM45.8453 33.834V33.6289C45.8453 32.8281 45.9397 32.099 46.1285 31.4414C46.3173 30.7773 46.5908 30.2077 46.9488 29.7324C47.3069 29.2507 47.7431 28.8828 48.2574 28.6289C48.7717 28.3685 49.3512 28.2383 49.9957 28.2383C50.6337 28.2383 51.1936 28.362 51.6754 28.6094C52.1572 28.8568 52.5673 29.2116 52.9059 29.6738C53.2444 30.1296 53.5146 30.6764 53.7164 31.3145C53.9182 31.946 54.0615 32.6491 54.1461 33.4238V34.0781C54.0615 34.8333 53.9182 35.5234 53.7164 36.1484C53.5146 36.7734 53.2444 37.3138 52.9059 37.7695C52.5673 38.2253 52.1539 38.5768 51.6656 38.8242C51.1839 39.0716 50.6207 39.1953 49.9762 39.1953C49.3382 39.1953 48.762 39.0618 48.2477 38.7949C47.7398 38.528 47.3069 38.1536 46.9488 37.6719C46.5908 37.1901 46.3173 36.6237 46.1285 35.9727C45.9397 35.3151 45.8453 34.6022 45.8453 33.834ZM48.1988 33.6289V33.834C48.1988 34.3158 48.2411 34.765 48.3258 35.1816C48.4169 35.5983 48.5569 35.9661 48.7457 36.2852C48.9345 36.5977 49.1786 36.8451 49.4781 37.0273C49.7841 37.2031 50.1487 37.291 50.5719 37.291C51.1057 37.291 51.5452 37.1738 51.8902 36.9395C52.2353 36.7051 52.5055 36.3893 52.7008 35.9922C52.9026 35.5885 53.0393 35.1393 53.1109 34.6445V32.877C53.0719 32.4928 52.9905 32.1348 52.8668 31.8027C52.7496 31.4707 52.5901 31.181 52.3883 30.9336C52.1865 30.6797 51.9358 30.4844 51.6363 30.3477C51.3434 30.2044 50.9951 30.1328 50.5914 30.1328C50.1617 30.1328 49.7971 30.224 49.4977 30.4062C49.1982 30.5885 48.9508 30.8392 48.7555 31.1582C48.5667 31.4772 48.4267 31.8483 48.3355 32.2715C48.2444 32.6947 48.1988 33.1471 48.1988 33.6289ZM62.4027 39.1953C61.6215 39.1953 60.9151 39.0684 60.2836 38.8145C59.6586 38.554 59.1247 38.1927 58.682 37.7305C58.2458 37.2682 57.9105 36.7246 57.6762 36.0996C57.4418 35.4746 57.3246 34.8008 57.3246 34.0781V33.6875C57.3246 32.8607 57.4451 32.112 57.6859 31.4414C57.9268 30.7708 58.2621 30.1979 58.6918 29.7227C59.1215 29.2409 59.6293 28.873 60.2152 28.6191C60.8012 28.3652 61.4359 28.2383 62.1195 28.2383C62.8747 28.2383 63.5355 28.3652 64.102 28.6191C64.6684 28.873 65.1371 29.2311 65.5082 29.6934C65.8858 30.1491 66.1658 30.6927 66.348 31.3242C66.5368 31.9557 66.6312 32.6523 66.6312 33.4141V34.4199H58.4672V32.7305H64.307V32.5449C64.294 32.1217 64.2094 31.7246 64.0531 31.3535C63.9034 30.9824 63.6723 30.6829 63.3598 30.4551C63.0473 30.2272 62.6306 30.1133 62.1098 30.1133C61.7191 30.1133 61.3708 30.1979 61.0648 30.3672C60.7654 30.5299 60.5147 30.7676 60.3129 31.0801C60.1111 31.3926 59.9548 31.7702 59.8441 32.2129C59.74 32.6491 59.6879 33.1406 59.6879 33.6875V34.0781C59.6879 34.5404 59.7497 34.9701 59.8734 35.3672C60.0036 35.7578 60.1924 36.0996 60.4398 36.3926C60.6872 36.6855 60.9867 36.9167 61.3383 37.0859C61.6898 37.2487 62.0902 37.3301 62.5395 37.3301C63.1059 37.3301 63.6104 37.2161 64.0531 36.9883C64.4958 36.7604 64.8799 36.4382 65.2055 36.0215L66.4457 37.2227C66.2178 37.5547 65.9216 37.8737 65.557 38.1797C65.1924 38.4792 64.7465 38.7233 64.2191 38.9121C63.6983 39.1009 63.0928 39.1953 62.4027 39.1953ZM71.0305 30.4453V39H68.677V28.4336H70.923L71.0305 30.4453ZM74.2629 28.3652L74.2434 30.5527C74.1001 30.5267 73.9439 30.5072 73.7746 30.4941C73.6118 30.4811 73.4491 30.4746 73.2863 30.4746C72.8827 30.4746 72.5279 30.5332 72.2219 30.6504C71.9159 30.7611 71.6587 30.9238 71.4504 31.1387C71.2486 31.347 71.0923 31.6009 70.9816 31.9004C70.871 32.1999 70.8059 32.5352 70.7863 32.9062L70.2492 32.9453C70.2492 32.2812 70.3143 31.666 70.4445 31.0996C70.5747 30.5332 70.7701 30.0352 71.0305 29.6055C71.2974 29.1758 71.6294 28.8405 72.0266 28.5996C72.4302 28.3587 72.8957 28.2383 73.423 28.2383C73.5663 28.2383 73.7193 28.2513 73.882 28.2773C74.0513 28.3034 74.1783 28.3327 74.2629 28.3652ZM81.8652 36.1387C81.8652 35.9043 81.8066 35.6927 81.6895 35.5039C81.5723 35.3086 81.3477 35.1328 81.0156 34.9766C80.6901 34.8203 80.2083 34.6771 79.5703 34.5469C79.0104 34.4232 78.4961 34.2767 78.0273 34.1074C77.5651 33.9316 77.168 33.7201 76.8359 33.4727C76.5039 33.2253 76.2467 32.9323 76.0645 32.5938C75.8822 32.2552 75.791 31.8646 75.791 31.4219C75.791 30.9922 75.8854 30.5853 76.0742 30.2012C76.263 29.8171 76.5332 29.4785 76.8848 29.1855C77.2363 28.8926 77.6628 28.6615 78.1641 28.4922C78.6719 28.3229 79.2383 28.2383 79.8633 28.2383C80.7487 28.2383 81.5072 28.388 82.1387 28.6875C82.7767 28.9805 83.265 29.3809 83.6035 29.8887C83.9421 30.39 84.1113 30.9564 84.1113 31.5879H81.7578C81.7578 31.3079 81.6862 31.0475 81.543 30.8066C81.4062 30.5592 81.1979 30.3607 80.918 30.2109C80.638 30.0547 80.2865 29.9766 79.8633 29.9766C79.4596 29.9766 79.1243 30.0417 78.8574 30.1719C78.597 30.2956 78.4017 30.4583 78.2715 30.6602C78.1478 30.862 78.0859 31.0833 78.0859 31.3242C78.0859 31.5 78.1185 31.6595 78.1836 31.8027C78.2552 31.9395 78.3724 32.0664 78.5352 32.1836C78.6979 32.2943 78.9193 32.3984 79.1992 32.4961C79.4857 32.5938 79.8438 32.6882 80.2734 32.7793C81.0807 32.9486 81.7741 33.1667 82.3535 33.4336C82.9395 33.694 83.3887 34.0326 83.7012 34.4492C84.0137 34.8594 84.1699 35.3802 84.1699 36.0117C84.1699 36.4805 84.069 36.9102 83.8672 37.3008C83.6719 37.6849 83.3854 38.0202 83.0078 38.3066C82.6302 38.5866 82.1777 38.8047 81.6504 38.9609C81.1296 39.1172 80.5436 39.1953 79.8926 39.1953C78.9355 39.1953 78.125 39.026 77.4609 38.6875C76.7969 38.3424 76.2923 37.903 75.9473 37.3691C75.6087 36.8288 75.4395 36.2689 75.4395 35.6895H77.7148C77.7409 36.1257 77.8613 36.474 78.0762 36.7344C78.2975 36.9883 78.571 37.1738 78.8965 37.291C79.2285 37.4017 79.5703 37.457 79.9219 37.457C80.3451 37.457 80.6999 37.4017 80.9863 37.291C81.2728 37.1738 81.4909 37.0176 81.6406 36.8223C81.7904 36.6204 81.8652 36.3926 81.8652 36.1387Z" fill="#C7C7C7"/>
<path d="M236 64C211.908 64 188.275 70.5936 167.663 83.0663L186.797 114.688C201.638 105.707 218.654 100.96 236 100.96V64Z" fill="#EB5757"/>
<path d="M166.067 84.0477C148.805 94.8305 134.271 109.459 123.599 126.79L155.072 146.168C162.755 133.69 173.22 123.158 185.648 115.394L166.067 84.0477Z" fill="#EAAB00"/>
<path d="M122.674 128.315C105.659 156.805 99.9977 190.658 106.819 223.133L142.989 215.536C138.078 192.153 142.154 167.779 154.405 147.267L122.674 128.315Z" fill="#A84069"/>
<path d="M107.174 224.771C113.335 252.357 128.188 277.237 149.547 295.749L173.754 267.819C158.375 254.491 147.681 236.577 143.245 216.715L107.174 224.771Z" fill="#00B2A9"/>
<path d="M150.876 296.886C174.113 316.492 203.405 327.476 233.804 327.982L234.419 291.027C212.532 290.663 191.441 282.754 174.711 268.638L150.876 296.886Z" fill="#2D9CDB"/>
<path d="M235.64 328C265.885 328.082 295.24 317.776 318.796 298.805L295.613 270.02C278.653 283.679 257.517 291.099 235.741 291.04L235.64 328Z" fill="#BB6BD9"/>
<path d="M320.322 297.557C340.853 280.51 355.735 257.641 363.006 231.965C370.277 206.289 369.595 179.012 361.05 153.732L326.036 165.567C332.188 183.769 332.679 203.408 327.444 221.895C322.209 240.381 311.494 256.847 296.712 269.121L320.322 297.557Z" fill="#4CD964"/>
<path d="M360.476 152.072C351.515 126.679 335.001 104.633 313.151 88.894C291.301 73.1548 265.16 64.4749 238.235 64.0189L237.609 100.974C256.995 101.302 275.817 107.551 291.549 118.884C307.281 130.216 319.171 146.089 325.623 164.372L360.476 152.072Z" fill="#8D43FF"/>
<path d="M198.393 191.547V196H196.893V184.625H201.089C202.334 184.625 203.307 184.943 204.011 185.578C204.719 186.214 205.073 187.055 205.073 188.102C205.073 189.206 204.727 190.057 204.034 190.656C203.347 191.25 202.36 191.547 201.073 191.547H198.393ZM198.393 190.32H201.089C201.891 190.32 202.505 190.133 202.932 189.758C203.36 189.378 203.573 188.831 203.573 188.117C203.573 187.44 203.36 186.898 202.932 186.492C202.505 186.086 201.919 185.875 201.175 185.859H198.393V190.32ZM211.007 188.844C210.788 188.807 210.551 188.789 210.296 188.789C209.348 188.789 208.704 189.193 208.366 190V196H206.921V187.547H208.327L208.35 188.523C208.824 187.768 209.496 187.391 210.366 187.391C210.647 187.391 210.861 187.427 211.007 187.5V188.844ZM211.963 191.695C211.963 190.867 212.125 190.122 212.448 189.461C212.776 188.799 213.229 188.289 213.807 187.93C214.391 187.57 215.055 187.391 215.799 187.391C216.95 187.391 217.88 187.789 218.588 188.586C219.302 189.383 219.659 190.443 219.659 191.766V191.867C219.659 192.69 219.5 193.43 219.182 194.086C218.87 194.737 218.419 195.245 217.831 195.609C217.247 195.974 216.575 196.156 215.815 196.156C214.669 196.156 213.739 195.758 213.026 194.961C212.318 194.164 211.963 193.109 211.963 191.797V191.695ZM213.417 191.867C213.417 192.805 213.633 193.557 214.065 194.125C214.502 194.693 215.086 194.977 215.815 194.977C216.549 194.977 217.133 194.69 217.565 194.117C217.997 193.539 218.213 192.732 218.213 191.695C218.213 190.768 217.992 190.018 217.549 189.445C217.112 188.867 216.529 188.578 215.799 188.578C215.086 188.578 214.51 188.862 214.073 189.43C213.635 189.997 213.417 190.81 213.417 191.867ZM223.123 187.547V196.977C223.123 198.602 222.386 199.414 220.912 199.414C220.595 199.414 220.301 199.367 220.03 199.273V198.117C220.196 198.159 220.415 198.18 220.686 198.18C221.009 198.18 221.254 198.091 221.42 197.914C221.592 197.742 221.678 197.44 221.678 197.008V187.547H223.123ZM221.53 185.305C221.53 185.076 221.6 184.88 221.741 184.719C221.886 184.552 222.097 184.469 222.373 184.469C222.655 184.469 222.868 184.549 223.014 184.711C223.16 184.872 223.233 185.07 223.233 185.305C223.233 185.539 223.16 185.734 223.014 185.891C222.868 186.047 222.655 186.125 222.373 186.125C222.092 186.125 221.881 186.047 221.741 185.891C221.6 185.734 221.53 185.539 221.53 185.305ZM229.127 196.156C227.981 196.156 227.049 195.781 226.33 195.031C225.612 194.276 225.252 193.268 225.252 192.008V191.742C225.252 190.904 225.411 190.156 225.729 189.5C226.052 188.839 226.5 188.323 227.072 187.953C227.651 187.578 228.276 187.391 228.947 187.391C230.046 187.391 230.901 187.753 231.51 188.477C232.119 189.201 232.424 190.237 232.424 191.586V192.188H226.697C226.718 193.021 226.961 193.695 227.424 194.211C227.893 194.721 228.487 194.977 229.205 194.977C229.716 194.977 230.148 194.872 230.502 194.664C230.856 194.456 231.166 194.18 231.432 193.836L232.315 194.523C231.606 195.612 230.544 196.156 229.127 196.156ZM228.947 188.578C228.364 188.578 227.875 188.792 227.479 189.219C227.083 189.641 226.838 190.234 226.744 191H230.979V190.891C230.937 190.156 230.739 189.589 230.385 189.188C230.031 188.781 229.552 188.578 228.947 188.578ZM237.654 194.977C238.17 194.977 238.621 194.82 239.006 194.508C239.391 194.195 239.605 193.805 239.647 193.336H241.014C240.988 193.82 240.821 194.281 240.514 194.719C240.206 195.156 239.795 195.505 239.279 195.766C238.769 196.026 238.227 196.156 237.654 196.156C236.503 196.156 235.587 195.773 234.904 195.008C234.227 194.237 233.889 193.185 233.889 191.852V191.609C233.889 190.786 234.04 190.055 234.342 189.414C234.644 188.773 235.076 188.276 235.639 187.922C236.206 187.568 236.876 187.391 237.647 187.391C238.594 187.391 239.381 187.674 240.006 188.242C240.636 188.81 240.972 189.547 241.014 190.453H239.647C239.605 189.906 239.397 189.458 239.022 189.109C238.652 188.755 238.193 188.578 237.647 188.578C236.912 188.578 236.342 188.844 235.936 189.375C235.535 189.901 235.334 190.664 235.334 191.664V191.938C235.334 192.911 235.535 193.661 235.936 194.188C236.337 194.714 236.91 194.977 237.654 194.977ZM244.76 185.5V187.547H246.338V188.664H244.76V193.906C244.76 194.245 244.83 194.5 244.971 194.672C245.111 194.839 245.351 194.922 245.689 194.922C245.856 194.922 246.085 194.891 246.377 194.828V196C245.997 196.104 245.627 196.156 245.268 196.156C244.622 196.156 244.135 195.961 243.807 195.57C243.478 195.18 243.314 194.625 243.314 193.906V188.664H241.775V187.547H243.314V185.5H244.76ZM253.115 193.758C253.115 193.367 252.967 193.065 252.67 192.852C252.378 192.633 251.865 192.445 251.131 192.289C250.401 192.133 249.821 191.945 249.388 191.727C248.961 191.508 248.644 191.247 248.435 190.945C248.232 190.643 248.131 190.284 248.131 189.867C248.131 189.174 248.422 188.589 249.006 188.109C249.594 187.63 250.344 187.391 251.256 187.391C252.214 187.391 252.99 187.638 253.584 188.133C254.183 188.628 254.482 189.26 254.482 190.031H253.029C253.029 189.635 252.86 189.294 252.521 189.008C252.188 188.721 251.766 188.578 251.256 188.578C250.73 188.578 250.318 188.693 250.021 188.922C249.724 189.151 249.576 189.451 249.576 189.82C249.576 190.169 249.714 190.432 249.99 190.609C250.266 190.786 250.763 190.956 251.482 191.117C252.206 191.279 252.792 191.471 253.24 191.695C253.688 191.919 254.019 192.19 254.232 192.508C254.451 192.82 254.56 193.203 254.56 193.656C254.56 194.411 254.258 195.018 253.654 195.477C253.05 195.93 252.266 196.156 251.302 196.156C250.625 196.156 250.026 196.036 249.506 195.797C248.985 195.557 248.576 195.224 248.279 194.797C247.987 194.365 247.842 193.898 247.842 193.398H249.287C249.313 193.883 249.506 194.268 249.865 194.555C250.23 194.836 250.709 194.977 251.302 194.977C251.849 194.977 252.287 194.867 252.615 194.648C252.948 194.424 253.115 194.128 253.115 193.758ZM267.888 191.867C267.888 193.159 267.591 194.198 266.997 194.984C266.404 195.766 265.607 196.156 264.607 196.156C263.539 196.156 262.714 195.779 262.13 195.023L262.06 196H260.732V184H262.177V188.477C262.761 187.753 263.565 187.391 264.591 187.391C265.617 187.391 266.422 187.779 267.005 188.555C267.594 189.331 267.888 190.393 267.888 191.742V191.867ZM266.443 191.703C266.443 190.719 266.253 189.958 265.872 189.422C265.492 188.885 264.945 188.617 264.232 188.617C263.279 188.617 262.594 189.06 262.177 189.945V193.602C262.62 194.487 263.31 194.93 264.247 194.93C264.94 194.93 265.479 194.661 265.865 194.125C266.25 193.589 266.443 192.781 266.443 191.703ZM272.548 193.883L274.517 187.547H276.064L272.665 197.305C272.139 198.711 271.303 199.414 270.158 199.414L269.884 199.391L269.345 199.289V198.117L269.736 198.148C270.225 198.148 270.605 198.049 270.876 197.852C271.152 197.654 271.379 197.292 271.556 196.766L271.876 195.906L268.861 187.547H270.439L272.548 193.883ZM213.098 220C213.015 219.833 212.947 219.536 212.895 219.109C212.223 219.807 211.421 220.156 210.489 220.156C209.655 220.156 208.971 219.922 208.434 219.453C207.903 218.979 207.637 218.38 207.637 217.656C207.637 216.776 207.971 216.094 208.637 215.609C209.309 215.12 210.252 214.875 211.465 214.875H212.872V214.211C212.872 213.706 212.721 213.305 212.418 213.008C212.116 212.706 211.671 212.555 211.083 212.555C210.567 212.555 210.135 212.685 209.786 212.945C209.437 213.206 209.262 213.521 209.262 213.891H207.809C207.809 213.469 207.958 213.062 208.254 212.672C208.556 212.276 208.963 211.964 209.473 211.734C209.989 211.505 210.554 211.391 211.168 211.391C212.142 211.391 212.905 211.635 213.458 212.125C214.01 212.609 214.296 213.279 214.317 214.133V218.023C214.317 218.799 214.416 219.417 214.614 219.875V220H213.098ZM210.7 218.898C211.153 218.898 211.583 218.781 211.989 218.547C212.395 218.312 212.689 218.008 212.872 217.633V215.898H211.739C209.968 215.898 209.083 216.417 209.083 217.453C209.083 217.906 209.234 218.26 209.536 218.516C209.838 218.771 210.226 218.898 210.7 218.898ZM220.133 218.977C220.649 218.977 221.099 218.82 221.485 218.508C221.87 218.195 222.084 217.805 222.125 217.336H223.493C223.466 217.82 223.3 218.281 222.993 218.719C222.685 219.156 222.274 219.505 221.758 219.766C221.248 220.026 220.706 220.156 220.133 220.156C218.982 220.156 218.065 219.773 217.383 219.008C216.706 218.237 216.368 217.185 216.368 215.852V215.609C216.368 214.786 216.519 214.055 216.821 213.414C217.123 212.773 217.555 212.276 218.118 211.922C218.685 211.568 219.354 211.391 220.125 211.391C221.073 211.391 221.86 211.674 222.485 212.242C223.115 212.81 223.451 213.547 223.493 214.453H222.125C222.084 213.906 221.875 213.458 221.5 213.109C221.131 212.755 220.672 212.578 220.125 212.578C219.391 212.578 218.821 212.844 218.414 213.375C218.013 213.901 217.813 214.664 217.813 215.664V215.938C217.813 216.911 218.013 217.661 218.414 218.188C218.815 218.714 219.388 218.977 220.133 218.977ZM228.668 218.977C229.184 218.977 229.634 218.82 230.02 218.508C230.405 218.195 230.619 217.805 230.66 217.336H232.028C232.001 217.82 231.835 218.281 231.528 218.719C231.22 219.156 230.809 219.505 230.293 219.766C229.783 220.026 229.241 220.156 228.668 220.156C227.517 220.156 226.6 219.773 225.918 219.008C225.241 218.237 224.903 217.185 224.903 215.852V215.609C224.903 214.786 225.054 214.055 225.356 213.414C225.658 212.773 226.09 212.276 226.653 211.922C227.22 211.568 227.889 211.391 228.66 211.391C229.608 211.391 230.395 211.674 231.02 212.242C231.65 212.81 231.986 213.547 232.028 214.453H230.66C230.619 213.906 230.41 213.458 230.035 213.109C229.666 212.755 229.207 212.578 228.66 212.578C227.926 212.578 227.356 212.844 226.949 213.375C226.548 213.901 226.348 214.664 226.348 215.664V215.938C226.348 216.911 226.548 217.661 226.949 218.188C227.35 218.714 227.923 218.977 228.668 218.977ZM233.43 215.695C233.43 214.867 233.591 214.122 233.914 213.461C234.242 212.799 234.695 212.289 235.273 211.93C235.857 211.57 236.521 211.391 237.266 211.391C238.417 211.391 239.346 211.789 240.055 212.586C240.768 213.383 241.125 214.443 241.125 215.766V215.867C241.125 216.69 240.966 217.43 240.648 218.086C240.336 218.737 239.885 219.245 239.297 219.609C238.714 219.974 238.042 220.156 237.281 220.156C236.135 220.156 235.206 219.758 234.492 218.961C233.784 218.164 233.43 217.109 233.43 215.797V215.695ZM234.883 215.867C234.883 216.805 235.099 217.557 235.531 218.125C235.969 218.693 236.552 218.977 237.281 218.977C238.016 218.977 238.599 218.69 239.031 218.117C239.464 217.539 239.68 216.732 239.68 215.695C239.68 214.768 239.458 214.018 239.016 213.445C238.578 212.867 237.995 212.578 237.266 212.578C236.552 212.578 235.977 212.862 235.539 213.43C235.102 213.997 234.883 214.81 234.883 215.867ZM248.316 219.164C247.754 219.826 246.928 220.156 245.84 220.156C244.939 220.156 244.251 219.896 243.777 219.375C243.308 218.849 243.071 218.073 243.066 217.047V211.547H244.512V217.008C244.512 218.289 245.032 218.93 246.074 218.93C247.178 218.93 247.913 218.518 248.277 217.695V211.547H249.723V220H248.348L248.316 219.164ZM253.453 211.547L253.5 212.609C254.146 211.797 254.989 211.391 256.031 211.391C257.817 211.391 258.718 212.398 258.734 214.414V220H257.289V214.406C257.284 213.797 257.143 213.346 256.867 213.055C256.596 212.763 256.172 212.617 255.593 212.617C255.125 212.617 254.713 212.742 254.359 212.992C254.005 213.242 253.729 213.57 253.531 213.977V220H252.086V211.547H253.453ZM263.035 209.5V211.547H264.613V212.664H263.035V217.906C263.035 218.245 263.105 218.5 263.246 218.672C263.386 218.839 263.626 218.922 263.964 218.922C264.131 218.922 264.36 218.891 264.652 218.828V220C264.272 220.104 263.902 220.156 263.542 220.156C262.897 220.156 262.41 219.961 262.082 219.57C261.753 219.18 261.589 218.625 261.589 217.906V212.664H260.05V211.547H261.589V209.5H263.035Z" fill="#C7C7C7"/>
<circle cx="48" cy="368" r="8" fill="#EB5757"/>
<path d="M67.6846 368.372L66.4678 369.637V373H65.1553V363.047H66.4678V367.969L70.8906 363.047H72.4766L68.5596 367.442L72.7842 373H71.2119L67.6846 368.372ZM79.9219 368.604H75.7451V373H74.4326V363.047H80.5986V364.127H75.7451V367.531H79.9219V368.604ZM89.9922 369.842C89.8691 370.895 89.4795 371.708 88.8232 372.282C88.1715 372.852 87.3034 373.137 86.2188 373.137C85.043 373.137 84.0996 372.715 83.3887 371.872C82.6823 371.029 82.3291 369.901 82.3291 368.488V367.531C82.3291 366.606 82.4932 365.793 82.8213 365.091C83.154 364.389 83.6234 363.851 84.2295 363.478C84.8356 363.099 85.5374 362.91 86.335 362.91C87.3923 362.91 88.2399 363.206 88.8779 363.799C89.516 364.387 89.8874 365.202 89.9922 366.246H88.6729C88.5589 365.453 88.3105 364.879 87.9277 364.523C87.5495 364.168 87.0186 363.99 86.335 363.99C85.4964 363.99 84.8379 364.3 84.3594 364.92C83.8854 365.54 83.6484 366.422 83.6484 367.565V368.529C83.6484 369.609 83.874 370.468 84.3252 371.106C84.7764 371.744 85.4076 372.063 86.2188 372.063C86.9479 372.063 87.5062 371.899 87.8936 371.571C88.2855 371.239 88.5452 370.662 88.6729 369.842H89.9922Z" fill="#C7C7C7"/>
<circle cx="124" cy="368" r="8" fill="#A84069"/>
<path d="M143.685 368.372L142.468 369.637V373H141.155V363.047H142.468V367.969L146.891 363.047H148.477L144.56 367.442L148.784 373H147.212L143.685 368.372ZM151.752 371.927H156.469V373H150.433V363.047H151.752V371.927ZM160.161 363.047L163.415 371.168L166.669 363.047H168.371V373H167.059V369.124L167.182 364.94L163.914 373H162.909L159.648 364.961L159.778 369.124V373H158.466V363.047H160.161Z" fill="#C7C7C7"/>
<circle cx="207" cy="368" r="8" fill="#BB6BD9"/>
<path d="M229.651 370.402H225.481L224.545 373H223.191L226.992 363.047H228.141L231.948 373H230.602L229.651 370.402ZM225.878 369.322H229.262L227.566 364.667L225.878 369.322ZM234.779 365.604L234.813 366.424C235.356 365.786 236.087 365.467 237.008 365.467C238.042 365.467 238.746 365.863 239.12 366.656C239.366 366.301 239.685 366.014 240.077 365.795C240.474 365.576 240.941 365.467 241.479 365.467C243.101 365.467 243.926 366.326 243.953 368.044V373H242.688V368.119C242.688 367.59 242.568 367.196 242.326 366.937C242.085 366.672 241.679 366.54 241.109 366.54C240.64 366.54 240.25 366.681 239.94 366.964C239.631 367.242 239.451 367.618 239.4 368.092V373H238.129V368.153C238.129 367.078 237.603 366.54 236.55 366.54C235.72 366.54 235.153 366.893 234.848 367.6V373H233.583V365.604H234.779ZM249.437 373.137C248.434 373.137 247.618 372.809 246.989 372.152C246.36 371.492 246.046 370.61 246.046 369.507V369.274C246.046 368.541 246.185 367.887 246.463 367.312C246.745 366.734 247.137 366.283 247.639 365.959C248.145 365.631 248.691 365.467 249.279 365.467C250.241 365.467 250.988 365.784 251.521 366.417C252.055 367.05 252.321 367.957 252.321 369.138V369.664H247.311C247.329 370.393 247.541 370.983 247.946 371.435C248.356 371.881 248.876 372.104 249.505 372.104C249.951 372.104 250.33 372.013 250.64 371.831C250.95 371.649 251.221 371.407 251.453 371.106L252.226 371.708C251.606 372.66 250.676 373.137 249.437 373.137ZM249.279 366.506C248.769 366.506 248.34 366.693 247.994 367.066C247.648 367.436 247.434 367.955 247.352 368.625H251.057V368.529C251.02 367.887 250.847 367.39 250.537 367.039C250.227 366.684 249.808 366.506 249.279 366.506ZM257.866 366.738C257.675 366.706 257.467 366.69 257.244 366.69C256.415 366.69 255.852 367.044 255.556 367.75V373H254.291V365.604H255.521L255.542 366.458C255.957 365.797 256.545 365.467 257.306 365.467C257.552 365.467 257.739 365.499 257.866 365.562V366.738ZM260.909 373H259.645V365.604H260.909V373ZM259.542 363.642C259.542 363.437 259.604 363.263 259.727 363.122C259.854 362.981 260.041 362.91 260.287 362.91C260.533 362.91 260.72 362.981 260.848 363.122C260.975 363.263 261.039 363.437 261.039 363.642C261.039 363.847 260.975 364.018 260.848 364.154C260.72 364.291 260.533 364.359 260.287 364.359C260.041 364.359 259.854 364.291 259.727 364.154C259.604 364.018 259.542 363.847 259.542 363.642ZM266.406 372.104C266.857 372.104 267.252 371.968 267.589 371.694C267.926 371.421 268.113 371.079 268.149 370.669H269.346C269.323 371.093 269.177 371.496 268.908 371.879C268.639 372.262 268.279 372.567 267.828 372.795C267.382 373.023 266.908 373.137 266.406 373.137C265.399 373.137 264.597 372.802 264 372.132C263.408 371.457 263.111 370.537 263.111 369.37V369.158C263.111 368.438 263.243 367.798 263.508 367.237C263.772 366.677 264.15 366.242 264.643 365.932C265.139 365.622 265.725 365.467 266.399 365.467C267.229 365.467 267.917 365.715 268.464 366.212C269.015 366.709 269.309 367.354 269.346 368.146H268.149C268.113 367.668 267.931 367.276 267.603 366.971C267.279 366.661 266.878 366.506 266.399 366.506C265.757 366.506 265.258 366.738 264.902 367.203C264.551 367.663 264.376 368.331 264.376 369.206V369.445C264.376 370.298 264.551 370.954 264.902 371.414C265.253 371.874 265.755 372.104 266.406 372.104ZM275.834 373C275.761 372.854 275.702 372.594 275.656 372.221C275.068 372.831 274.367 373.137 273.551 373.137C272.822 373.137 272.222 372.932 271.753 372.521C271.288 372.107 271.056 371.583 271.056 370.949C271.056 370.179 271.347 369.582 271.931 369.158C272.519 368.73 273.343 368.516 274.405 368.516H275.636V367.935C275.636 367.493 275.504 367.142 275.239 366.882C274.975 366.618 274.585 366.485 274.07 366.485C273.619 366.485 273.241 366.599 272.936 366.827C272.63 367.055 272.478 367.331 272.478 367.654H271.206C271.206 367.285 271.336 366.93 271.596 366.588C271.86 366.242 272.215 365.968 272.662 365.768C273.113 365.567 273.608 365.467 274.146 365.467C274.998 365.467 275.665 365.681 276.148 366.109C276.632 366.533 276.882 367.119 276.9 367.866V371.271C276.9 371.95 276.987 372.49 277.16 372.891V373H275.834ZM273.735 372.036C274.132 372.036 274.508 371.934 274.863 371.729C275.219 371.523 275.476 371.257 275.636 370.929V369.411H274.645C273.095 369.411 272.32 369.865 272.32 370.771C272.32 371.168 272.452 371.478 272.717 371.701C272.981 371.924 273.321 372.036 273.735 372.036ZM280.579 365.604L280.62 366.533C281.185 365.822 281.924 365.467 282.835 365.467C284.398 365.467 285.187 366.349 285.2 368.112V373H283.936V368.105C283.931 367.572 283.808 367.178 283.566 366.923C283.329 366.668 282.958 366.54 282.452 366.54C282.042 366.54 281.682 366.649 281.372 366.868C281.062 367.087 280.821 367.374 280.647 367.729V373H279.383V365.604H280.579ZM297.404 368.399H293.091V371.927H298.102V373H291.778V363.047H298.033V364.127H293.091V367.326H297.404V368.399ZM302.519 368.304L304.159 365.604H305.636L303.216 369.261L305.711 373H304.248L302.539 370.231L300.83 373H299.36L301.855 369.261L299.436 365.604H300.898L302.519 368.304ZM313.73 369.384C313.73 370.509 313.473 371.416 312.958 372.104C312.443 372.793 311.746 373.137 310.866 373.137C309.968 373.137 309.262 372.852 308.747 372.282V375.844H307.482V365.604H308.638L308.699 366.424C309.214 365.786 309.93 365.467 310.846 365.467C311.734 365.467 312.436 365.802 312.951 366.472C313.471 367.142 313.73 368.074 313.73 369.268V369.384ZM312.466 369.24C312.466 368.406 312.288 367.748 311.933 367.265C311.577 366.782 311.09 366.54 310.47 366.54C309.704 366.54 309.13 366.88 308.747 367.559V371.093C309.125 371.767 309.704 372.104 310.483 372.104C311.09 372.104 311.57 371.865 311.926 371.387C312.286 370.904 312.466 370.188 312.466 369.24ZM319.419 366.738C319.228 366.706 319.02 366.69 318.797 366.69C317.967 366.69 317.405 367.044 317.108 367.75V373H315.844V365.604H317.074L317.095 366.458C317.509 365.797 318.097 365.467 318.858 365.467C319.104 365.467 319.291 365.499 319.419 365.562V366.738ZM324.021 373.137C323.018 373.137 322.202 372.809 321.573 372.152C320.944 371.492 320.63 370.61 320.63 369.507V369.274C320.63 368.541 320.769 367.887 321.047 367.312C321.329 366.734 321.721 366.283 322.223 365.959C322.729 365.631 323.275 365.467 323.863 365.467C324.825 365.467 325.572 365.784 326.105 366.417C326.639 367.05 326.905 367.957 326.905 369.138V369.664H321.895C321.913 370.393 322.125 370.983 322.53 371.435C322.94 371.881 323.46 372.104 324.089 372.104C324.535 372.104 324.914 372.013 325.224 371.831C325.534 371.649 325.805 371.407 326.037 371.106L326.81 371.708C326.19 372.66 325.26 373.137 324.021 373.137ZM323.863 366.506C323.353 366.506 322.924 366.693 322.578 367.066C322.232 367.436 322.018 367.955 321.936 368.625H325.641V368.529C325.604 367.887 325.431 367.39 325.121 367.039C324.811 366.684 324.392 366.506 323.863 366.506ZM333.182 371.038C333.182 370.696 333.052 370.432 332.792 370.245C332.537 370.054 332.088 369.89 331.445 369.753C330.807 369.616 330.299 369.452 329.921 369.261C329.547 369.069 329.269 368.841 329.087 368.577C328.909 368.313 328.82 367.998 328.82 367.634C328.82 367.028 329.076 366.515 329.586 366.096C330.101 365.676 330.757 365.467 331.555 365.467C332.393 365.467 333.072 365.683 333.592 366.116C334.116 366.549 334.378 367.103 334.378 367.777H333.106C333.106 367.431 332.958 367.132 332.662 366.882C332.37 366.631 332.001 366.506 331.555 366.506C331.094 366.506 330.734 366.606 330.475 366.807C330.215 367.007 330.085 367.269 330.085 367.593C330.085 367.898 330.206 368.128 330.447 368.283C330.689 368.438 331.124 368.586 331.753 368.728C332.386 368.869 332.899 369.037 333.291 369.233C333.683 369.429 333.972 369.666 334.159 369.944C334.351 370.218 334.446 370.553 334.446 370.949C334.446 371.61 334.182 372.141 333.653 372.542C333.125 372.938 332.439 373.137 331.596 373.137C331.003 373.137 330.479 373.032 330.023 372.822C329.568 372.613 329.21 372.321 328.95 371.947C328.695 371.569 328.567 371.161 328.567 370.724H329.832C329.855 371.147 330.023 371.485 330.338 371.735C330.657 371.981 331.076 372.104 331.596 372.104C332.074 372.104 332.457 372.009 332.744 371.817C333.036 371.621 333.182 371.362 333.182 371.038ZM340.9 371.038C340.9 370.696 340.771 370.432 340.511 370.245C340.256 370.054 339.807 369.89 339.164 369.753C338.526 369.616 338.018 369.452 337.64 369.261C337.266 369.069 336.988 368.841 336.806 368.577C336.628 368.313 336.539 367.998 336.539 367.634C336.539 367.028 336.794 366.515 337.305 366.096C337.82 365.676 338.476 365.467 339.273 365.467C340.112 365.467 340.791 365.683 341.311 366.116C341.835 366.549 342.097 367.103 342.097 367.777H340.825C340.825 367.431 340.677 367.132 340.381 366.882C340.089 366.631 339.72 366.506 339.273 366.506C338.813 366.506 338.453 366.606 338.193 366.807C337.934 367.007 337.804 367.269 337.804 367.593C337.804 367.898 337.924 368.128 338.166 368.283C338.408 368.438 338.843 368.586 339.472 368.728C340.105 368.869 340.618 369.037 341.01 369.233C341.402 369.429 341.691 369.666 341.878 369.944C342.069 370.218 342.165 370.553 342.165 370.949C342.165 371.61 341.901 372.141 341.372 372.542C340.843 372.938 340.158 373.137 339.314 373.137C338.722 373.137 338.198 373.032 337.742 372.822C337.286 372.613 336.929 372.321 336.669 371.947C336.414 371.569 336.286 371.161 336.286 370.724H337.551C337.574 371.147 337.742 371.485 338.057 371.735C338.376 371.981 338.795 372.104 339.314 372.104C339.793 372.104 340.176 372.009 340.463 371.817C340.755 371.621 340.9 371.362 340.9 371.038Z" fill="#C7C7C7"/>
</svg>
