<svg width="634" height="472" viewBox="0 0 634 472" fill="none" xmlns="http://www.w3.org/2000/svg">
<rect width="634" height="472" rx="14" fill="#27283C"/>
<ellipse cx="123.887" cy="402" rx="10.4639" ry="8" fill="#F4A26C"/>
<path d="M152.645 402.604H148.468V407H147.155V397.047H153.321V398.127H148.468V401.531H152.645V402.604ZM158.114 407.137C157.112 407.137 156.296 406.809 155.667 406.152C155.038 405.492 154.724 404.61 154.724 403.507V403.274C154.724 402.541 154.863 401.887 155.141 401.312C155.423 400.734 155.815 400.283 156.316 399.959C156.822 399.631 157.369 399.467 157.957 399.467C158.919 399.467 159.666 399.784 160.199 400.417C160.732 401.05 160.999 401.957 160.999 403.138V403.664H155.988C156.007 404.393 156.218 404.983 156.624 405.435C157.034 405.881 157.554 406.104 158.183 406.104C158.629 406.104 159.007 406.013 159.317 405.831C159.627 405.649 159.898 405.407 160.131 405.106L160.903 405.708C160.284 406.66 159.354 407.137 158.114 407.137ZM157.957 400.506C157.447 400.506 157.018 400.693 156.672 401.066C156.326 401.436 156.111 401.955 156.029 402.625H159.734V402.529C159.698 401.887 159.525 401.39 159.215 401.039C158.905 400.684 158.486 400.506 157.957 400.506ZM169.23 403.384C169.23 404.514 168.971 405.423 168.451 406.111C167.932 406.795 167.234 407.137 166.359 407.137C165.425 407.137 164.703 406.806 164.192 406.146L164.131 407H162.969V396.5H164.233V400.417C164.744 399.784 165.448 399.467 166.346 399.467C167.243 399.467 167.948 399.806 168.458 400.485C168.973 401.164 169.23 402.094 169.23 403.274V403.384ZM167.966 403.24C167.966 402.379 167.799 401.714 167.467 401.244C167.134 400.775 166.656 400.54 166.031 400.54C165.197 400.54 164.598 400.927 164.233 401.702V404.901C164.621 405.676 165.225 406.063 166.045 406.063C166.651 406.063 167.123 405.829 167.46 405.359C167.797 404.89 167.966 404.184 167.966 403.24ZM174.905 400.738C174.714 400.706 174.507 400.69 174.283 400.69C173.454 400.69 172.891 401.044 172.595 401.75V407H171.33V399.604H172.561L172.581 400.458C172.996 399.797 173.584 399.467 174.345 399.467C174.591 399.467 174.778 399.499 174.905 399.562V400.738ZM181.141 406.269C180.648 406.847 179.926 407.137 178.974 407.137C178.185 407.137 177.584 406.909 177.169 406.453C176.759 405.993 176.551 405.314 176.547 404.416V399.604H177.812V404.382C177.812 405.503 178.267 406.063 179.179 406.063C180.145 406.063 180.787 405.703 181.106 404.983V399.604H182.371V407H181.168L181.141 406.269ZM189.365 407C189.292 406.854 189.233 406.594 189.188 406.221C188.6 406.831 187.898 407.137 187.082 407.137C186.353 407.137 185.754 406.932 185.284 406.521C184.819 406.107 184.587 405.583 184.587 404.949C184.587 404.179 184.879 403.582 185.462 403.158C186.05 402.73 186.875 402.516 187.937 402.516H189.167V401.935C189.167 401.493 189.035 401.142 188.771 400.882C188.506 400.618 188.117 400.485 187.602 400.485C187.15 400.485 186.772 400.599 186.467 400.827C186.161 401.055 186.009 401.331 186.009 401.654H184.737C184.737 401.285 184.867 400.93 185.127 400.588C185.391 400.242 185.747 399.968 186.193 399.768C186.645 399.567 187.139 399.467 187.677 399.467C188.529 399.467 189.197 399.681 189.68 400.109C190.163 400.533 190.413 401.119 190.432 401.866V405.271C190.432 405.95 190.518 406.49 190.691 406.891V407H189.365ZM187.267 406.036C187.663 406.036 188.039 405.934 188.395 405.729C188.75 405.523 189.007 405.257 189.167 404.929V403.411H188.176C186.626 403.411 185.852 403.865 185.852 404.771C185.852 405.168 185.984 405.478 186.248 405.701C186.512 405.924 186.852 406.036 187.267 406.036ZM196.489 400.738C196.298 400.706 196.09 400.69 195.867 400.69C195.038 400.69 194.475 401.044 194.179 401.75V407H192.914V399.604H194.145L194.165 400.458C194.58 399.797 195.168 399.467 195.929 399.467C196.175 399.467 196.362 399.499 196.489 399.562V400.738ZM200.701 405.147L202.424 399.604H203.777L200.804 408.142C200.343 409.372 199.612 409.987 198.609 409.987L198.37 409.967L197.898 409.878V408.853L198.24 408.88C198.669 408.88 199.001 408.793 199.238 408.62C199.48 408.447 199.678 408.13 199.833 407.67L200.113 406.918L197.475 399.604H198.855L200.701 405.147Z" fill="#C7C7C7"/>
<ellipse cx="261.526" cy="402" rx="10.4639" ry="8" fill="#3FAEA3"/>
<path d="M285.304 397.047L288.558 405.168L291.812 397.047H293.514V407H292.201V403.124L292.324 398.94L289.057 407H288.052L284.791 398.961L284.921 403.124V407H283.609V397.047H285.304ZM300.699 407C300.627 406.854 300.567 406.594 300.522 406.221C299.934 406.831 299.232 407.137 298.416 407.137C297.687 407.137 297.088 406.932 296.618 406.521C296.154 406.107 295.921 405.583 295.921 404.949C295.921 404.179 296.213 403.582 296.796 403.158C297.384 402.73 298.209 402.516 299.271 402.516H300.501V401.935C300.501 401.493 300.369 401.142 300.105 400.882C299.84 400.618 299.451 400.485 298.936 400.485C298.485 400.485 298.106 400.599 297.801 400.827C297.496 401.055 297.343 401.331 297.343 401.654H296.072C296.072 401.285 296.201 400.93 296.461 400.588C296.726 400.242 297.081 399.968 297.528 399.768C297.979 399.567 298.473 399.467 299.011 399.467C299.863 399.467 300.531 399.681 301.014 400.109C301.497 400.533 301.748 401.119 301.766 401.866V405.271C301.766 405.95 301.852 406.49 302.026 406.891V407H300.699ZM298.601 406.036C298.997 406.036 299.373 405.934 299.729 405.729C300.084 405.523 300.342 405.257 300.501 404.929V403.411H299.51C297.961 403.411 297.186 403.865 297.186 404.771C297.186 405.168 297.318 405.478 297.582 405.701C297.847 405.924 298.186 406.036 298.601 406.036ZM307.823 400.738C307.632 400.706 307.425 400.69 307.201 400.69C306.372 400.69 305.809 401.044 305.513 401.75V407H304.248V399.604H305.479L305.499 400.458C305.914 399.797 306.502 399.467 307.263 399.467C307.509 399.467 307.696 399.499 307.823 399.562V400.738ZM312.323 406.104C312.774 406.104 313.168 405.968 313.505 405.694C313.842 405.421 314.029 405.079 314.066 404.669H315.262C315.239 405.093 315.093 405.496 314.824 405.879C314.556 406.262 314.196 406.567 313.744 406.795C313.298 407.023 312.824 407.137 312.323 407.137C311.315 407.137 310.513 406.802 309.916 406.132C309.324 405.457 309.028 404.537 309.028 403.37V403.158C309.028 402.438 309.16 401.798 309.424 401.237C309.688 400.677 310.067 400.242 310.559 399.932C311.056 399.622 311.641 399.467 312.316 399.467C313.145 399.467 313.833 399.715 314.38 400.212C314.932 400.709 315.226 401.354 315.262 402.146H314.066C314.029 401.668 313.847 401.276 313.519 400.971C313.195 400.661 312.794 400.506 312.316 400.506C311.673 400.506 311.174 400.738 310.819 401.203C310.468 401.663 310.292 402.331 310.292 403.206V403.445C310.292 404.298 310.468 404.954 310.819 405.414C311.17 405.874 311.671 406.104 312.323 406.104ZM318.448 400.499C319.009 399.811 319.738 399.467 320.636 399.467C322.199 399.467 322.988 400.349 323.001 402.112V407H321.737V402.105C321.732 401.572 321.609 401.178 321.367 400.923C321.13 400.668 320.759 400.54 320.253 400.54C319.843 400.54 319.483 400.649 319.173 400.868C318.863 401.087 318.622 401.374 318.448 401.729V407H317.184V396.5H318.448V400.499Z" fill="#C7C7C7"/>
<ellipse cx="393.556" cy="402" rx="10.4639" ry="8" fill="#914DF0"/>
<path d="M421.135 404.402H416.965L416.028 407H414.675L418.476 397.047H419.624L423.432 407H422.085L421.135 404.402ZM417.361 403.322H420.745L419.05 398.667L417.361 403.322ZM431.321 403.384C431.321 404.509 431.064 405.416 430.549 406.104C430.034 406.793 429.337 407.137 428.457 407.137C427.559 407.137 426.853 406.852 426.338 406.282V409.844H425.073V399.604H426.229L426.29 400.424C426.805 399.786 427.521 399.467 428.437 399.467C429.325 399.467 430.027 399.802 430.542 400.472C431.062 401.142 431.321 402.074 431.321 403.268V403.384ZM430.057 403.24C430.057 402.406 429.879 401.748 429.524 401.265C429.168 400.782 428.68 400.54 428.061 400.54C427.295 400.54 426.721 400.88 426.338 401.559V405.093C426.716 405.767 427.295 406.104 428.074 406.104C428.68 406.104 429.161 405.865 429.517 405.387C429.877 404.904 430.057 404.188 430.057 403.24ZM437.01 400.738C436.818 400.706 436.611 400.69 436.388 400.69C435.558 400.69 434.996 401.044 434.699 401.75V407H433.435V399.604H434.665L434.686 400.458C435.1 399.797 435.688 399.467 436.449 399.467C436.695 399.467 436.882 399.499 437.01 399.562V400.738ZM440.053 407H438.788V399.604H440.053V407ZM438.686 397.642C438.686 397.437 438.747 397.263 438.87 397.122C438.998 396.981 439.185 396.91 439.431 396.91C439.677 396.91 439.864 396.981 439.991 397.122C440.119 397.263 440.183 397.437 440.183 397.642C440.183 397.847 440.119 398.018 439.991 398.154C439.864 398.291 439.677 398.359 439.431 398.359C439.185 398.359 438.998 398.291 438.87 398.154C438.747 398.018 438.686 397.847 438.686 397.642ZM443.957 407H442.693V396.5H443.957V407Z" fill="#C7C7C7"/>
<path d="M59.743 26.7734H55.3094V39H52.8583V26.7734H48.4637V24.7812H59.743V26.7734ZM59.113 33.6191C59.113 32.584 59.318 31.653 59.7282 30.8262C60.1384 29.9928 60.7145 29.3548 61.4567 28.9121C62.1989 28.4629 63.0518 28.2383 64.0153 28.2383C65.4411 28.2383 66.5967 28.6973 67.4821 29.6152C68.374 30.5332 68.8558 31.7507 68.9274 33.2676L68.9372 33.8242C68.9372 34.8659 68.7354 35.7969 68.3317 36.6172C67.9346 37.4375 67.3617 38.0723 66.613 38.5215C65.8708 38.9707 65.0114 39.1953 64.0348 39.1953C62.544 39.1953 61.3493 38.7005 60.4509 37.7109C59.5589 36.7148 59.113 35.39 59.113 33.7363V33.6191ZM61.486 33.8242C61.486 34.9115 61.7106 35.7643 62.1598 36.3828C62.6091 36.9948 63.2341 37.3008 64.0348 37.3008C64.8356 37.3008 65.4574 36.9883 65.9001 36.3633C66.3493 35.7383 66.5739 34.8236 66.5739 33.6191C66.5739 32.5514 66.3428 31.7051 65.8805 31.0801C65.4248 30.4551 64.8031 30.1426 64.0153 30.1426C63.2406 30.1426 62.6253 30.4518 62.1696 31.0703C61.7139 31.6823 61.486 32.6003 61.486 33.8242ZM74.1177 25.8652V28.4336H75.9829V30.1914H74.1177V36.0898C74.1177 36.4935 74.1958 36.7865 74.352 36.9688C74.5148 37.1445 74.8012 37.2324 75.2114 37.2324C75.4848 37.2324 75.7615 37.1999 76.0415 37.1348V38.9707C75.5011 39.1204 74.9803 39.1953 74.479 39.1953C72.6561 39.1953 71.7446 38.1895 71.7446 36.1777V30.1914H70.0063V28.4336H71.7446V25.8652H74.1177ZM84.3177 39C84.2135 38.7982 84.1223 38.4694 84.0442 38.0137C83.289 38.8014 82.3645 39.1953 81.2708 39.1953C80.2096 39.1953 79.3437 38.8926 78.6731 38.2871C78.0025 37.6816 77.6673 36.9329 77.6673 36.041C77.6673 34.9147 78.0839 34.0521 78.9173 33.4531C79.7571 32.8477 80.955 32.5449 82.511 32.5449H83.9661V31.8516C83.9661 31.3047 83.8131 30.8685 83.5071 30.543C83.2011 30.2109 82.7356 30.0449 82.1106 30.0449C81.5703 30.0449 81.1275 30.1816 80.7825 30.4551C80.4374 30.722 80.2649 31.0638 80.2649 31.4805H77.8919C77.8919 30.901 78.0839 30.3607 78.468 29.8594C78.8522 29.3516 79.373 28.9544 80.0305 28.668C80.6946 28.3815 81.4335 28.2383 82.2473 28.2383C83.4843 28.2383 84.4706 28.5508 85.2063 29.1758C85.942 29.7943 86.3196 30.6667 86.3391 31.793V36.5586C86.3391 37.5091 86.4726 38.2676 86.7395 38.834V39H84.3177ZM81.7102 37.291C82.179 37.291 82.6184 37.1771 83.0286 36.9492C83.4453 36.7214 83.7578 36.4154 83.9661 36.0312V34.0391H82.6868C81.8079 34.0391 81.1471 34.1921 80.7044 34.498C80.2617 34.804 80.0403 35.237 80.0403 35.7969C80.0403 36.2526 80.19 36.6172 80.4895 36.8906C80.7955 37.1576 81.2024 37.291 81.7102 37.291ZM91.5489 39H89.1759V24H91.5489V39ZM107.183 35.3379C107.183 34.7129 106.962 34.2311 106.519 33.8926C106.083 33.554 105.292 33.2122 104.146 32.8672C103 32.5221 102.089 32.138 101.412 31.7148C100.116 30.901 99.4684 29.8398 99.4684 28.5312C99.4684 27.3854 99.9339 26.4414 100.865 25.6992C101.802 24.957 103.017 24.5859 104.507 24.5859C105.497 24.5859 106.379 24.7682 107.154 25.1328C107.929 25.4974 108.537 26.0182 108.98 26.6953C109.423 27.3659 109.644 28.1113 109.644 28.9316H107.183C107.183 28.1895 106.949 27.61 106.48 27.1934C106.018 26.7702 105.354 26.5586 104.488 26.5586C103.681 26.5586 103.052 26.7311 102.603 27.0762C102.16 27.4212 101.939 27.903 101.939 28.5215C101.939 29.0423 102.18 29.4785 102.662 29.8301C103.144 30.1751 103.938 30.5137 105.045 30.8457C106.151 31.1712 107.04 31.5456 107.711 31.9688C108.381 32.3854 108.873 32.8672 109.185 33.4141C109.498 33.9544 109.654 34.5892 109.654 35.3184C109.654 36.5033 109.198 37.4473 108.287 38.1504C107.382 38.847 106.151 39.1953 104.595 39.1953C103.567 39.1953 102.619 39.0065 101.754 38.6289C100.894 38.2448 100.224 37.7174 99.7419 37.0469C99.2666 36.3763 99.029 35.5951 99.029 34.7031H101.5C101.5 35.5104 101.767 36.1354 102.3 36.5781C102.834 37.0208 103.599 37.2422 104.595 37.2422C105.455 37.2422 106.099 37.0697 106.529 36.7246C106.965 36.373 107.183 35.9108 107.183 35.3379ZM118.106 39C118.002 38.7982 117.911 38.4694 117.832 38.0137C117.077 38.8014 116.153 39.1953 115.059 39.1953C113.998 39.1953 113.132 38.8926 112.461 38.2871C111.791 37.6816 111.456 36.9329 111.456 36.041C111.456 34.9147 111.872 34.0521 112.706 33.4531C113.545 32.8477 114.743 32.5449 116.299 32.5449H117.754V31.8516C117.754 31.3047 117.601 30.8685 117.295 30.543C116.989 30.2109 116.524 30.0449 115.899 30.0449C115.359 30.0449 114.916 30.1816 114.571 30.4551C114.226 30.722 114.053 31.0638 114.053 31.4805H111.68C111.68 30.901 111.872 30.3607 112.256 29.8594C112.64 29.3516 113.161 28.9544 113.819 28.668C114.483 28.3815 115.222 28.2383 116.036 28.2383C117.273 28.2383 118.259 28.5508 118.995 29.1758C119.73 29.7943 120.108 30.6667 120.127 31.793V36.5586C120.127 37.5091 120.261 38.2676 120.528 38.834V39H118.106ZM115.499 37.291C115.967 37.291 116.407 37.1771 116.817 36.9492C117.234 36.7214 117.546 36.4154 117.754 36.0312V34.0391H116.475C115.596 34.0391 114.935 34.1921 114.493 34.498C114.05 34.804 113.829 35.237 113.829 35.7969C113.829 36.2526 113.978 36.6172 114.278 36.8906C114.584 37.1576 114.991 37.291 115.499 37.291ZM125.337 39H122.964V24H125.337V39ZM134.443 39C134.339 38.7982 134.248 38.4694 134.17 38.0137C133.415 38.8014 132.49 39.1953 131.397 39.1953C130.335 39.1953 129.469 38.8926 128.799 38.2871C128.128 37.6816 127.793 36.9329 127.793 36.041C127.793 34.9147 128.21 34.0521 129.043 33.4531C129.883 32.8477 131.081 32.5449 132.637 32.5449H134.092V31.8516C134.092 31.3047 133.939 30.8685 133.633 30.543C133.327 30.2109 132.861 30.0449 132.236 30.0449C131.696 30.0449 131.253 30.1816 130.908 30.4551C130.563 30.722 130.391 31.0638 130.391 31.4805H128.018C128.018 30.901 128.21 30.3607 128.594 29.8594C128.978 29.3516 129.499 28.9544 130.156 28.668C130.82 28.3815 131.559 28.2383 132.373 28.2383C133.61 28.2383 134.596 28.5508 135.332 29.1758C136.068 29.7943 136.445 30.6667 136.465 31.793V36.5586C136.465 37.5091 136.598 38.2676 136.865 38.834V39H134.443ZM131.836 37.291C132.305 37.291 132.744 37.1771 133.154 36.9492C133.571 36.7214 133.884 36.4154 134.092 36.0312V34.0391H132.813C131.934 34.0391 131.273 34.1921 130.83 34.498C130.387 34.804 130.166 35.237 130.166 35.7969C130.166 36.2526 130.316 36.6172 130.615 36.8906C130.921 37.1576 131.328 37.291 131.836 37.291ZM144.682 30.6016C144.37 30.5495 144.048 30.5234 143.716 30.5234C142.628 30.5234 141.896 30.9401 141.518 31.7734V39H139.145V28.4336H141.411L141.47 29.6152C142.043 28.6973 142.837 28.2383 143.852 28.2383C144.191 28.2383 144.471 28.2839 144.692 28.375L144.682 30.6016ZM150.254 35.6016L152.402 28.4336H154.931L150.732 40.6016C150.088 42.3789 148.994 43.2676 147.451 43.2676C147.106 43.2676 146.725 43.209 146.308 43.0918V41.2559L146.757 41.2852C147.356 41.2852 147.806 41.1745 148.105 40.9531C148.411 40.7383 148.652 40.3737 148.828 39.8594L149.17 38.9512L145.459 28.4336H148.017L150.254 35.6016Z" fill="#C7C7C7"/>
<path d="M52.8134 71.3359L55.7821 65.625H57.4852L53.5634 72.7578V77H52.0634V72.7578L48.1415 65.625H49.8602L52.8134 71.3359ZM61.8796 77.1562C60.7338 77.1562 59.8015 76.7812 59.0827 76.0312C58.364 75.276 58.0046 74.2682 58.0046 73.0078V72.7422C58.0046 71.9036 58.1635 71.1562 58.4812 70.5C58.8041 69.8385 59.252 69.3229 59.8249 68.9531C60.403 68.5781 61.028 68.3906 61.6999 68.3906C62.7989 68.3906 63.653 68.7526 64.2624 69.4766C64.8718 70.2005 65.1765 71.237 65.1765 72.5859V73.1875H59.4499C59.4708 74.0208 59.7129 74.6953 60.1765 75.2109C60.6452 75.7214 61.239 75.9766 61.9577 75.9766C62.4681 75.9766 62.9004 75.8724 63.2546 75.6641C63.6088 75.4557 63.9187 75.1797 64.1843 74.8359L65.0671 75.5234C64.3588 76.612 63.2963 77.1562 61.8796 77.1562ZM61.6999 69.5781C61.1166 69.5781 60.627 69.7917 60.2312 70.2188C59.8353 70.6406 59.5905 71.2344 59.4968 72H63.7312V71.8906C63.6895 71.1562 63.4916 70.5885 63.1374 70.1875C62.7833 69.7812 62.3041 69.5781 61.6999 69.5781ZM72.2349 77C72.1516 76.8333 72.0839 76.5365 72.0318 76.1094C71.3599 76.8073 70.5578 77.1562 69.6255 77.1562C68.7922 77.1562 68.1073 76.9219 67.5709 76.4531C67.0396 75.9792 66.774 75.3802 66.774 74.6562C66.774 73.776 67.1073 73.0938 67.774 72.6094C68.4459 72.1198 69.3886 71.875 70.6021 71.875H72.0084V71.2109C72.0084 70.7057 71.8573 70.3047 71.5552 70.0078C71.2531 69.7057 70.8078 69.5547 70.2193 69.5547C69.7037 69.5547 69.2714 69.6849 68.9224 69.9453C68.5735 70.2057 68.399 70.5208 68.399 70.8906H66.9459C66.9459 70.4688 67.0943 70.0625 67.3912 69.6719C67.6933 69.276 68.0995 68.9635 68.6099 68.7344C69.1255 68.5052 69.6906 68.3906 70.3052 68.3906C71.2792 68.3906 72.0422 68.6354 72.5943 69.125C73.1464 69.6094 73.4328 70.2786 73.4537 71.1328V75.0234C73.4537 75.7995 73.5526 76.4167 73.7505 76.875V77H72.2349ZM69.8365 75.8984C70.2896 75.8984 70.7193 75.7812 71.1255 75.5469C71.5318 75.3125 71.8261 75.0078 72.0084 74.6328V72.8984H70.8755C69.1047 72.8984 68.2193 73.4167 68.2193 74.4531C68.2193 74.9062 68.3703 75.2604 68.6724 75.5156C68.9745 75.7708 69.3625 75.8984 69.8365 75.8984ZM79.9652 69.8438C79.7465 69.8073 79.5095 69.7891 79.2543 69.7891C78.3064 69.7891 77.6631 70.1927 77.3246 71V77H75.8793V68.5469H77.2855L77.309 69.5234C77.7829 68.7682 78.4548 68.3906 79.3246 68.3906C79.6059 68.3906 79.8194 68.4271 79.9652 68.5V69.8438ZM86.383 74.7578C86.383 74.3672 86.2346 74.0651 85.9377 73.8516C85.6461 73.6328 85.133 73.4453 84.3987 73.2891C83.6695 73.1328 83.0888 72.9453 82.6565 72.7266C82.2294 72.5078 81.9117 72.2474 81.7034 71.9453C81.5002 71.6432 81.3987 71.2839 81.3987 70.8672C81.3987 70.1745 81.6903 69.5885 82.2737 69.1094C82.8622 68.6302 83.6122 68.3906 84.5237 68.3906C85.482 68.3906 86.258 68.638 86.8518 69.1328C87.4507 69.6276 87.7502 70.2604 87.7502 71.0312H86.2971C86.2971 70.6354 86.1278 70.2943 85.7893 70.0078C85.456 69.7214 85.0341 69.5781 84.5237 69.5781C83.9976 69.5781 83.5862 69.6927 83.2893 69.9219C82.9924 70.151 82.844 70.4505 82.844 70.8203C82.844 71.1693 82.982 71.4323 83.258 71.6094C83.5341 71.7865 84.0315 71.9557 84.7502 72.1172C85.4742 72.2786 86.0601 72.4714 86.508 72.6953C86.956 72.9193 87.2867 73.1901 87.5002 73.5078C87.719 73.8203 87.8284 74.2031 87.8284 74.6562C87.8284 75.4115 87.5263 76.0182 86.9221 76.4766C86.3179 76.9297 85.5341 77.1562 84.5705 77.1562C83.8935 77.1562 83.2945 77.0365 82.7737 76.7969C82.2528 76.5573 81.844 76.224 81.5471 75.7969C81.2554 75.3646 81.1096 74.8984 81.1096 74.3984H82.5549C82.581 74.8828 82.7737 75.2682 83.133 75.5547C83.4976 75.8359 83.9768 75.9766 84.5705 75.9766C85.1174 75.9766 85.5549 75.8672 85.883 75.6484C86.2164 75.4245 86.383 75.1276 86.383 74.7578Z" fill="#8E8E93"/>
<line x1="87.2637" y1="146.5" x2="526.745" y2="146.5" stroke="#8E8E93" stroke-dasharray="8 8"/>
<line x1="87.2637" y1="210.5" x2="525.438" y2="210.5" stroke="#8E8E93" stroke-dasharray="8 8"/>
<line x1="92.4956" y1="282.5" x2="522.822" y2="282.5" stroke="#8E8E93" stroke-dasharray="8 8"/>
<path d="M545.498 141.438L540.787 152H539.272L543.967 141.812H537.811V140.625H545.498V141.438ZM554.432 147.148C554.432 148.841 554.143 150.099 553.565 150.922C552.987 151.745 552.083 152.156 550.854 152.156C549.64 152.156 548.742 151.755 548.158 150.953C547.575 150.146 547.273 148.943 547.252 147.344V145.414C547.252 143.742 547.541 142.5 548.119 141.688C548.697 140.875 549.604 140.469 550.838 140.469C552.062 140.469 552.963 140.862 553.541 141.648C554.119 142.43 554.416 143.638 554.432 145.273V147.148ZM552.987 145.172C552.987 143.948 552.815 143.057 552.471 142.5C552.127 141.938 551.583 141.656 550.838 141.656C550.099 141.656 549.559 141.935 549.221 142.492C548.882 143.049 548.708 143.906 548.697 145.062V147.375C548.697 148.604 548.875 149.513 549.229 150.102C549.588 150.685 550.13 150.977 550.854 150.977C551.567 150.977 552.096 150.701 552.44 150.148C552.789 149.596 552.971 148.727 552.987 147.539V145.172ZM563.787 141.438L559.076 152H557.561L562.256 141.812H556.1V140.625H563.787V141.438Z" fill="#4F4F4F"/>
<path d="M544.256 212.18H545.834V213.359H544.256V216H542.803V213.359H537.623V212.508L542.717 204.625H544.256V212.18ZM539.264 212.18H542.803V206.602L542.631 206.914L539.264 212.18ZM554.432 211.148C554.432 212.841 554.143 214.099 553.565 214.922C552.987 215.745 552.083 216.156 550.854 216.156C549.64 216.156 548.742 215.755 548.158 214.953C547.575 214.146 547.273 212.943 547.252 211.344V209.414C547.252 207.742 547.541 206.5 548.119 205.688C548.697 204.875 549.604 204.469 550.838 204.469C552.062 204.469 552.963 204.862 553.541 205.648C554.119 206.43 554.416 207.638 554.432 209.273V211.148ZM552.987 209.172C552.987 207.948 552.815 207.057 552.471 206.5C552.127 205.938 551.583 205.656 550.838 205.656C550.099 205.656 549.559 205.935 549.221 206.492C548.882 207.049 548.708 207.906 548.697 209.062V211.375C548.697 212.604 548.875 213.513 549.229 214.102C549.588 214.685 550.13 214.977 550.854 214.977C551.567 214.977 552.096 214.701 552.44 214.148C552.789 213.596 552.971 212.727 552.987 211.539V209.172ZM563.576 211.148C563.576 212.841 563.287 214.099 562.709 214.922C562.131 215.745 561.227 216.156 559.998 216.156C558.785 216.156 557.886 215.755 557.303 214.953C556.719 214.146 556.417 212.943 556.397 211.344V209.414C556.397 207.742 556.686 206.5 557.264 205.688C557.842 204.875 558.748 204.469 559.982 204.469C561.206 204.469 562.107 204.862 562.686 205.648C563.264 206.43 563.561 207.638 563.576 209.273V211.148ZM562.131 209.172C562.131 207.948 561.959 207.057 561.615 206.5C561.272 205.938 560.727 205.656 559.982 205.656C559.243 205.656 558.704 205.935 558.365 206.492C558.027 207.049 557.852 207.906 557.842 209.062V211.375C557.842 212.604 558.019 213.513 558.373 214.102C558.732 214.685 559.274 214.977 559.998 214.977C560.712 214.977 561.24 214.701 561.584 214.148C561.933 213.596 562.115 212.727 562.131 211.539V209.172Z" fill="#4F4F4F"/>
<path d="M142.852 366H135.399V364.961L139.337 360.586C139.92 359.924 140.321 359.388 140.54 358.977C140.764 358.56 140.876 358.13 140.876 357.688C140.876 357.094 140.696 356.607 140.337 356.227C139.977 355.846 139.498 355.656 138.899 355.656C138.181 355.656 137.621 355.862 137.22 356.273C136.824 356.68 136.626 357.247 136.626 357.977H135.181C135.181 356.93 135.517 356.083 136.188 355.438C136.866 354.792 137.769 354.469 138.899 354.469C139.957 354.469 140.793 354.747 141.407 355.305C142.022 355.857 142.329 356.594 142.329 357.516C142.329 358.635 141.616 359.969 140.188 361.516L137.142 364.82H142.852V366ZM151.677 361.148C151.677 362.841 151.387 364.099 150.809 364.922C150.231 365.745 149.328 366.156 148.098 366.156C146.885 366.156 145.986 365.755 145.403 364.953C144.82 364.146 144.518 362.943 144.497 361.344V359.414C144.497 357.742 144.786 356.5 145.364 355.688C145.942 354.875 146.848 354.469 148.083 354.469C149.307 354.469 150.208 354.862 150.786 355.648C151.364 356.43 151.661 357.638 151.677 359.273V361.148ZM150.231 359.172C150.231 357.948 150.059 357.057 149.716 356.5C149.372 355.938 148.828 355.656 148.083 355.656C147.343 355.656 146.804 355.935 146.466 356.492C146.127 357.049 145.953 357.906 145.942 359.062V361.375C145.942 362.604 146.119 363.513 146.473 364.102C146.833 364.685 147.374 364.977 148.098 364.977C148.812 364.977 149.341 364.701 149.684 364.148C150.033 363.596 150.216 362.727 150.231 361.539V359.172ZM158.438 366H156.985V356.367L154.071 357.438V356.125L158.212 354.57H158.438V366ZM168.372 361C168.069 361.359 167.707 361.648 167.286 361.867C166.869 362.086 166.411 362.195 165.911 362.195C165.254 362.195 164.681 362.034 164.192 361.711C163.707 361.388 163.332 360.935 163.067 360.352C162.801 359.763 162.668 359.115 162.668 358.406C162.668 357.646 162.812 356.961 163.098 356.352C163.39 355.742 163.801 355.276 164.332 354.953C164.864 354.63 165.484 354.469 166.192 354.469C167.317 354.469 168.202 354.891 168.848 355.734C169.499 356.573 169.825 357.719 169.825 359.172V359.594C169.825 361.807 169.387 363.424 168.512 364.445C167.637 365.461 166.317 365.982 164.551 366.008H164.27V364.789H164.575C165.767 364.768 166.684 364.458 167.325 363.859C167.965 363.255 168.314 362.302 168.372 361ZM166.145 361C166.629 361 167.075 360.852 167.481 360.555C167.892 360.258 168.192 359.891 168.379 359.453V358.875C168.379 357.927 168.174 357.156 167.762 356.562C167.351 355.969 166.83 355.672 166.2 355.672C165.564 355.672 165.054 355.917 164.668 356.406C164.283 356.891 164.09 357.531 164.09 358.328C164.09 359.104 164.275 359.745 164.645 360.25C165.02 360.75 165.52 361 166.145 361Z" fill="#4F4F4F"/>
<path d="M247.491 366H240.038V364.961L243.975 360.586C244.559 359.924 244.96 359.388 245.178 358.977C245.402 358.56 245.514 358.13 245.514 357.688C245.514 357.094 245.335 356.607 244.975 356.227C244.616 355.846 244.137 355.656 243.538 355.656C242.819 355.656 242.259 355.862 241.858 356.273C241.462 356.68 241.264 357.247 241.264 357.977H239.819C239.819 356.93 240.155 356.083 240.827 355.438C241.504 354.792 242.408 354.469 243.538 354.469C244.595 354.469 245.431 354.747 246.046 355.305C246.66 355.857 246.967 356.594 246.967 357.516C246.967 358.635 246.254 359.969 244.827 361.516L241.78 364.82H247.491V366ZM256.315 361.148C256.315 362.841 256.026 364.099 255.448 364.922C254.87 365.745 253.966 366.156 252.737 366.156C251.523 366.156 250.625 365.755 250.042 364.953C249.458 364.146 249.156 362.943 249.135 361.344V359.414C249.135 357.742 249.424 356.5 250.002 355.688C250.581 354.875 251.487 354.469 252.721 354.469C253.945 354.469 254.846 354.862 255.424 355.648C256.002 356.43 256.299 357.638 256.315 359.273V361.148ZM254.87 359.172C254.87 357.948 254.698 357.057 254.354 356.5C254.01 355.938 253.466 355.656 252.721 355.656C251.982 355.656 251.443 355.935 251.104 356.492C250.766 357.049 250.591 357.906 250.581 359.062V361.375C250.581 362.604 250.758 363.513 251.112 364.102C251.471 364.685 252.013 364.977 252.737 364.977C253.45 364.977 253.979 364.701 254.323 364.148C254.672 363.596 254.854 362.727 254.87 361.539V359.172ZM265.78 366H258.327V364.961L262.264 360.586C262.847 359.924 263.248 359.388 263.467 358.977C263.691 358.56 263.803 358.13 263.803 357.688C263.803 357.094 263.623 356.607 263.264 356.227C262.905 355.846 262.426 355.656 261.827 355.656C261.108 355.656 260.548 355.862 260.147 356.273C259.751 356.68 259.553 357.247 259.553 357.977H258.108C258.108 356.93 258.444 356.083 259.116 355.438C259.793 354.792 260.696 354.469 261.827 354.469C262.884 354.469 263.72 354.747 264.334 355.305C264.949 355.857 265.256 356.594 265.256 357.516C265.256 358.635 264.543 359.969 263.116 361.516L260.069 364.82H265.78V366ZM274.604 361.148C274.604 362.841 274.315 364.099 273.737 364.922C273.158 365.745 272.255 366.156 271.026 366.156C269.812 366.156 268.914 365.755 268.33 364.953C267.747 364.146 267.445 362.943 267.424 361.344V359.414C267.424 357.742 267.713 356.5 268.291 355.688C268.869 354.875 269.776 354.469 271.01 354.469C272.234 354.469 273.135 354.862 273.713 355.648C274.291 356.43 274.588 357.638 274.604 359.273V361.148ZM273.158 359.172C273.158 357.948 272.987 357.057 272.643 356.5C272.299 355.938 271.755 355.656 271.01 355.656C270.27 355.656 269.731 355.935 269.393 356.492C269.054 357.049 268.88 357.906 268.869 359.062V361.375C268.869 362.604 269.046 363.513 269.401 364.102C269.76 364.685 270.302 364.977 271.026 364.977C271.739 364.977 272.268 364.701 272.612 364.148C272.961 363.596 273.143 362.727 273.158 361.539V359.172Z" fill="#4F4F4F"/>
<path d="M350.821 366H343.368V364.961L347.306 360.586C347.889 359.924 348.29 359.388 348.509 358.977C348.733 358.56 348.845 358.13 348.845 357.688C348.845 357.094 348.665 356.607 348.306 356.227C347.946 355.846 347.467 355.656 346.868 355.656C346.15 355.656 345.59 355.862 345.189 356.273C344.793 356.68 344.595 357.247 344.595 357.977H343.15C343.15 356.93 343.486 356.083 344.157 355.438C344.835 354.792 345.738 354.469 346.868 354.469C347.926 354.469 348.762 354.747 349.376 355.305C349.991 355.857 350.298 356.594 350.298 357.516C350.298 358.635 349.585 359.969 348.157 361.516L345.111 364.82H350.821V366ZM359.646 361.148C359.646 362.841 359.356 364.099 358.778 364.922C358.2 365.745 357.297 366.156 356.067 366.156C354.854 366.156 353.955 365.755 353.372 364.953C352.789 364.146 352.487 362.943 352.466 361.344V359.414C352.466 357.742 352.755 356.5 353.333 355.688C353.911 354.875 354.817 354.469 356.052 354.469C357.276 354.469 358.177 354.862 358.755 355.648C359.333 356.43 359.63 357.638 359.646 359.273V361.148ZM358.2 359.172C358.2 357.948 358.028 357.057 357.685 356.5C357.341 355.938 356.797 355.656 356.052 355.656C355.312 355.656 354.773 355.935 354.435 356.492C354.096 357.049 353.922 357.906 353.911 359.062V361.375C353.911 362.604 354.088 363.513 354.442 364.102C354.802 364.685 355.343 364.977 356.067 364.977C356.781 364.977 357.31 364.701 357.653 364.148C358.002 363.596 358.185 362.727 358.2 361.539V359.172ZM369.11 366H361.657V364.961L365.595 360.586C366.178 359.924 366.579 359.388 366.798 358.977C367.022 358.56 367.134 358.13 367.134 357.688C367.134 357.094 366.954 356.607 366.595 356.227C366.235 355.846 365.756 355.656 365.157 355.656C364.438 355.656 363.878 355.862 363.477 356.273C363.082 356.68 362.884 357.247 362.884 357.977H361.438C361.438 356.93 361.774 356.083 362.446 355.438C363.123 354.792 364.027 354.469 365.157 354.469C366.214 354.469 367.05 354.747 367.665 355.305C368.28 355.857 368.587 356.594 368.587 357.516C368.587 358.635 367.873 359.969 366.446 361.516L363.399 364.82H369.11V366ZM375.551 366H374.098V356.367L371.184 357.438V356.125L375.325 354.57H375.551V366Z" fill="#4F4F4F"/>
<path d="M456.768 366H449.315V364.961L453.252 360.586C453.836 359.924 454.237 359.388 454.456 358.977C454.679 358.56 454.791 358.13 454.791 357.688C454.791 357.094 454.612 356.607 454.252 356.227C453.893 355.846 453.414 355.656 452.815 355.656C452.096 355.656 451.536 355.862 451.135 356.273C450.739 356.68 450.541 357.247 450.541 357.977H449.096C449.096 356.93 449.432 356.083 450.104 355.438C450.781 354.792 451.685 354.469 452.815 354.469C453.872 354.469 454.708 354.747 455.323 355.305C455.937 355.857 456.245 356.594 456.245 357.516C456.245 358.635 455.531 359.969 454.104 361.516L451.057 364.82H456.768V366ZM465.592 361.148C465.592 362.841 465.303 364.099 464.725 364.922C464.147 365.745 463.243 366.156 462.014 366.156C460.8 366.156 459.902 365.755 459.319 364.953C458.735 364.146 458.433 362.943 458.412 361.344V359.414C458.412 357.742 458.701 356.5 459.28 355.688C459.858 354.875 460.764 354.469 461.998 354.469C463.222 354.469 464.123 354.862 464.701 355.648C465.28 356.43 465.576 357.638 465.592 359.273V361.148ZM464.147 359.172C464.147 357.948 463.975 357.057 463.631 356.5C463.287 355.938 462.743 355.656 461.998 355.656C461.259 355.656 460.72 355.935 460.381 356.492C460.043 357.049 459.868 357.906 459.858 359.062V361.375C459.858 362.604 460.035 363.513 460.389 364.102C460.748 364.685 461.29 364.977 462.014 364.977C462.727 364.977 463.256 364.701 463.6 364.148C463.949 363.596 464.131 362.727 464.147 361.539V359.172ZM475.057 366H467.604V364.961L471.541 360.586C472.124 359.924 472.526 359.388 472.744 358.977C472.968 358.56 473.08 358.13 473.08 357.688C473.08 357.094 472.901 356.607 472.541 356.227C472.182 355.846 471.703 355.656 471.104 355.656C470.385 355.656 469.825 355.862 469.424 356.273C469.028 356.68 468.83 357.247 468.83 357.977H467.385C467.385 356.93 467.721 356.083 468.393 355.438C469.07 354.792 469.973 354.469 471.104 354.469C472.161 354.469 472.997 354.747 473.611 355.305C474.226 355.857 474.533 356.594 474.533 357.516C474.533 358.635 473.82 359.969 472.393 361.516L469.346 364.82H475.057V366ZM484.201 366H476.748V364.961L480.686 360.586C481.269 359.924 481.67 359.388 481.889 358.977C482.113 358.56 482.225 358.13 482.225 357.688C482.225 357.094 482.045 356.607 481.686 356.227C481.326 355.846 480.847 355.656 480.248 355.656C479.529 355.656 478.969 355.862 478.568 356.273C478.172 356.68 477.975 357.247 477.975 357.977H476.529C476.529 356.93 476.865 356.083 477.537 355.438C478.214 354.792 479.118 354.469 480.248 354.469C481.305 354.469 482.141 354.747 482.756 355.305C483.37 355.857 483.678 356.594 483.678 357.516C483.678 358.635 482.964 359.969 481.537 361.516L478.49 364.82H484.201V366Z" fill="#4F4F4F"/>
<path d="M545.608 283H538.155V281.961L542.092 277.586C542.675 276.924 543.077 276.388 543.295 275.977C543.519 275.56 543.631 275.13 543.631 274.688C543.631 274.094 543.452 273.607 543.092 273.227C542.733 272.846 542.254 272.656 541.655 272.656C540.936 272.656 540.376 272.862 539.975 273.273C539.579 273.68 539.381 274.247 539.381 274.977H537.936C537.936 273.93 538.272 273.083 538.944 272.438C539.621 271.792 540.524 271.469 541.655 271.469C542.712 271.469 543.548 271.747 544.162 272.305C544.777 272.857 545.084 273.594 545.084 274.516C545.084 275.635 544.371 276.969 542.944 278.516L539.897 281.82H545.608V283ZM554.432 278.148C554.432 279.841 554.143 281.099 553.565 281.922C552.987 282.745 552.083 283.156 550.854 283.156C549.64 283.156 548.742 282.755 548.158 281.953C547.575 281.146 547.273 279.943 547.252 278.344V276.414C547.252 274.742 547.541 273.5 548.119 272.688C548.697 271.875 549.604 271.469 550.838 271.469C552.062 271.469 552.963 271.862 553.541 272.648C554.119 273.43 554.416 274.638 554.432 276.273V278.148ZM552.987 276.172C552.987 274.948 552.815 274.057 552.471 273.5C552.127 272.938 551.583 272.656 550.838 272.656C550.099 272.656 549.559 272.935 549.221 273.492C548.882 274.049 548.708 274.906 548.697 276.062V278.375C548.697 279.604 548.875 280.513 549.229 281.102C549.588 281.685 550.13 281.977 550.854 281.977C551.567 281.977 552.096 281.701 552.44 281.148C552.789 280.596 552.971 279.727 552.987 278.539V276.172ZM563.576 278.148C563.576 279.841 563.287 281.099 562.709 281.922C562.131 282.745 561.227 283.156 559.998 283.156C558.785 283.156 557.886 282.755 557.303 281.953C556.719 281.146 556.417 279.943 556.397 278.344V276.414C556.397 274.742 556.686 273.5 557.264 272.688C557.842 271.875 558.748 271.469 559.982 271.469C561.206 271.469 562.107 271.862 562.686 272.648C563.264 273.43 563.561 274.638 563.576 276.273V278.148ZM562.131 276.172C562.131 274.948 561.959 274.057 561.615 273.5C561.272 272.938 560.727 272.656 559.982 272.656C559.243 272.656 558.704 272.935 558.365 273.492C558.027 274.049 557.852 274.906 557.842 276.062V278.375C557.842 279.604 558.019 280.513 558.373 281.102C558.732 281.685 559.274 281.977 559.998 281.977C560.712 281.977 561.24 281.701 561.584 281.148C561.933 280.596 562.115 279.727 562.131 278.539V276.172Z" fill="#4F4F4F"/>
<path d="M545.287 338.148C545.287 339.841 544.998 341.099 544.42 341.922C543.842 342.745 542.939 343.156 541.709 343.156C540.496 343.156 539.597 342.755 539.014 341.953C538.431 341.146 538.129 339.943 538.108 338.344V336.414C538.108 334.742 538.397 333.5 538.975 332.688C539.553 331.875 540.459 331.469 541.694 331.469C542.918 331.469 543.819 331.862 544.397 332.648C544.975 333.43 545.272 334.638 545.287 336.273V338.148ZM543.842 336.172C543.842 334.948 543.67 334.057 543.327 333.5C542.983 332.938 542.439 332.656 541.694 332.656C540.954 332.656 540.415 332.935 540.077 333.492C539.738 334.049 539.564 334.906 539.553 336.062V338.375C539.553 339.604 539.73 340.513 540.084 341.102C540.444 341.685 540.985 341.977 541.709 341.977C542.423 341.977 542.952 341.701 543.295 341.148C543.644 340.596 543.827 339.727 543.842 338.539V336.172Z" fill="#4F4F4F"/>
<path d="M472.382 172L526.745 147V245H87.2637V228.5L198.279 221L266.948 185.5L297.276 179.5L323.027 172H434.615H472.382Z" fill="#F4A26C" stroke="white" stroke-width="3"/>
<path d="M472.382 217.5L526.745 211V290.5L87.2637 331V241.5L197.134 231L262.37 241.5L297.276 225L327.033 231H433.47L472.382 217.5Z" fill="#3FAEA3" stroke="white" stroke-width="3"/>
<path d="M471.238 259.153L526.745 250V340H87.2637V326.78L197.134 309.492H260.653L297.276 273.39L333.9 291.186L433.47 279.492L471.238 259.153Z" fill="#914DF0" stroke="white" stroke-width="3"/>
<line y1="-1" x2="439.483" y2="-1" transform="matrix(0.999997 0.00224402 -0.0039472 0.999992 87.2637 339)" stroke="#8E8E93" stroke-width="2"/>
<path d="M546.389 115.859H542.733V126H541.241V115.859H537.592V114.625H546.389V115.859ZM546.846 121.695C546.846 120.867 547.007 120.122 547.33 119.461C547.658 118.799 548.112 118.289 548.69 117.93C549.273 117.57 549.937 117.391 550.682 117.391C551.833 117.391 552.763 117.789 553.471 118.586C554.184 119.383 554.541 120.443 554.541 121.766V121.867C554.541 122.69 554.382 123.43 554.065 124.086C553.752 124.737 553.302 125.245 552.713 125.609C552.13 125.974 551.458 126.156 550.697 126.156C549.552 126.156 548.622 125.758 547.908 124.961C547.2 124.164 546.846 123.109 546.846 121.797V121.695ZM548.299 121.867C548.299 122.805 548.515 123.557 548.947 124.125C549.385 124.693 549.968 124.977 550.697 124.977C551.432 124.977 552.015 124.69 552.447 124.117C552.88 123.539 553.096 122.732 553.096 121.695C553.096 120.768 552.875 120.018 552.432 119.445C551.994 118.867 551.411 118.578 550.682 118.578C549.968 118.578 549.393 118.862 548.955 119.43C548.518 119.997 548.299 120.81 548.299 121.867ZM558.475 115.5V117.547H560.053V118.664H558.475V123.906C558.475 124.245 558.545 124.5 558.686 124.672C558.826 124.839 559.066 124.922 559.404 124.922C559.571 124.922 559.8 124.891 560.092 124.828V126C559.712 126.104 559.342 126.156 558.982 126.156C558.337 126.156 557.85 125.961 557.522 125.57C557.193 125.18 557.029 124.625 557.029 123.906V118.664H555.49V117.547H557.029V115.5H558.475ZM567.127 126C567.044 125.833 566.976 125.536 566.924 125.109C566.252 125.807 565.45 126.156 564.517 126.156C563.684 126.156 562.999 125.922 562.463 125.453C561.932 124.979 561.666 124.38 561.666 123.656C561.666 122.776 561.999 122.094 562.666 121.609C563.338 121.12 564.28 120.875 565.494 120.875H566.9V120.211C566.9 119.706 566.749 119.305 566.447 119.008C566.145 118.706 565.7 118.555 565.111 118.555C564.596 118.555 564.163 118.685 563.814 118.945C563.465 119.206 563.291 119.521 563.291 119.891H561.838C561.838 119.469 561.986 119.062 562.283 118.672C562.585 118.276 562.991 117.964 563.502 117.734C564.017 117.505 564.583 117.391 565.197 117.391C566.171 117.391 566.934 117.635 567.486 118.125C568.038 118.609 568.325 119.279 568.346 120.133V124.023C568.346 124.799 568.445 125.417 568.642 125.875V126H567.127ZM564.728 124.898C565.182 124.898 565.611 124.781 566.017 124.547C566.424 124.312 566.718 124.008 566.9 123.633V121.898H565.767C563.997 121.898 563.111 122.417 563.111 123.453C563.111 123.906 563.262 124.26 563.564 124.516C563.866 124.771 564.254 124.898 564.728 124.898ZM572.342 126H570.896V114H572.342V126Z" fill="#4F4F4F"/>
<line x1="152.355" y1="339" x2="152.355" y2="347" stroke="#8E8E93" stroke-width="2"/>
<line x1="256.993" y1="339" x2="256.993" y2="347" stroke="#8E8E93" stroke-width="2"/>
<line x1="361.632" y1="339" x2="361.632" y2="347" stroke="#8E8E93" stroke-width="2"/>
<line x1="466.27" y1="339" x2="466.27" y2="347" stroke="#8E8E93" stroke-width="2"/>
</svg>
