<svg width="32" height="25" viewBox="0 0 32 25" fill="none" xmlns="http://www.w3.org/2000/svg">
<path d="M32 3.0271C30.8232 3.52478 29.5591 3.86105 28.2301 4.01304C29.6013 3.22993 30.6272 1.9974 31.1164 0.545435C29.828 1.2758 28.418 1.78989 26.9476 2.06537C25.9588 1.05773 24.6491 0.389845 23.2218 0.165416C21.7945 -0.0590131 20.3296 0.172568 19.0543 0.824206C17.7791 1.47584 16.7649 2.51108 16.1693 3.76918C15.5737 5.02729 15.43 6.43788 15.7604 7.78194C13.1499 7.65685 10.5961 7.00926 8.26485 5.88122C5.93354 4.75318 3.87681 3.1699 2.22813 1.23411C1.66441 2.16222 1.34026 3.23828 1.34026 4.38428C1.33963 5.41595 1.60582 6.43181 2.11522 7.34174C2.62461 8.25168 3.36145 9.02754 4.26037 9.60049C3.21786 9.56883 2.19836 9.29998 1.28671 8.81631V8.89701C1.2866 10.344 1.81102 11.7464 2.77098 12.8663C3.73094 13.9863 5.06731 14.7547 6.55333 15.0413C5.58624 15.2911 4.57231 15.3279 3.58813 15.1489C4.0074 16.3939 4.82409 17.4827 5.92389 18.2627C7.02368 19.0427 8.35151 19.4749 9.72148 19.4989C7.39587 21.2413 4.52376 22.1865 1.56716 22.1823C1.04343 22.1825 0.520146 22.1533 0 22.0949C3.00111 23.9365 6.49462 24.9139 10.0625 24.9101C22.1404 24.9101 28.7431 15.3628 28.7431 7.08251C28.7431 6.81349 28.736 6.54178 28.7233 6.27277C30.0076 5.38633 31.1162 4.28864 31.9972 3.03114L32 3.0271Z" fill="#FB9300"/>
</svg>
