<svg width="24" height="24" viewBox="0 0 24 24" fill="none" xmlns="http://www.w3.org/2000/svg">
<path fill-rule="evenodd" clip-rule="evenodd" d="M16.4007 4.07233C16.3043 3.97589 16.1479 3.97589 16.0515 4.07233L13.6725 6.45133L17.5487 10.3275L19.9277 7.94855C20.0241 7.85211 20.0241 7.69574 19.9277 7.59929L16.4007 4.07233ZM16.1345 11.7418L12.2582 7.86554L4.47416 15.6496C4.43247 15.6913 4.40707 15.7465 4.40255 15.8053L4.08654 19.9135L8.19468 19.5975C8.25346 19.5929 8.30869 19.5675 8.35037 19.5258L16.1345 11.7418ZM14.6372 2.65812C15.5147 1.78063 16.9374 1.78063 17.8149 2.65812L21.3419 6.18508C22.2194 7.06257 22.2194 8.48527 21.3419 9.36277L9.76459 20.9401C9.38531 21.3193 8.88288 21.5504 8.34808 21.5916L3.0767 21.9971C2.78563 22.0194 2.49932 21.9135 2.2929 21.7071C2.08647 21.5007 1.98056 21.2144 2.00295 20.9233L2.40844 15.6519C2.44958 15.1171 2.68067 14.6147 3.05994 14.2354L14.6372 2.65812Z" fill="#00B2A9"/>
</svg>
