<svg width="19" height="19" viewBox="0 0 19 19" fill="none" xmlns="http://www.w3.org/2000/svg">
<path fill-rule="evenodd" clip-rule="evenodd" d="M12.9839 3.22409C12.9075 3.14774 12.7837 3.14774 12.7074 3.22409L10.824 5.10746L13.8927 8.17614L15.7761 6.29277C15.8524 6.21641 15.8524 6.09262 15.7761 6.01627L12.9839 3.22409ZM12.7731 9.29572L9.70442 6.22705L3.54202 12.3895C3.50902 12.4225 3.48891 12.4662 3.48533 12.5127L3.23515 15.765L6.48744 15.5148C6.53397 15.5112 6.57769 15.4911 6.61069 15.4581L12.7731 9.29572ZM11.5878 2.10451C12.2825 1.40983 13.4088 1.40982 14.1035 2.10451L16.8956 4.89668C17.5903 5.59136 17.5903 6.71767 16.8956 7.41235L7.73028 16.5777C7.43002 16.878 7.03226 17.0609 6.60887 17.0935L2.4357 17.4145C2.20527 17.4322 1.97861 17.3484 1.81519 17.185C1.65177 17.0215 1.56792 16.7949 1.58565 16.5644L1.90666 12.3913C1.93923 11.9679 2.12217 11.5701 2.42243 11.2699L11.5878 2.10451Z" fill="#00B2A9"/>
</svg>