<svg width="32" height="32" viewBox="0 0 32 32" fill="none" xmlns="http://www.w3.org/2000/svg">
    <g clip-path="url(#clip0_148_2325)">
        <path d="M30.606 14.2972H23.9291L17.8236 4.6196C17.5588 4.20653 17.1127 4 16.6666 4C16.2206 4 15.7745 4.20653 15.5097 4.63435L9.40422 14.2972H2.72725C1.96059 14.2972 1.33331 14.961 1.33331 15.7724C1.33331 15.9052 1.34725 16.0379 1.38907 16.1707L4.92968 29.8462C5.25028 31.0854 6.32362 32 7.60604 32H25.7273C27.0097 32 28.083 31.0854 28.4176 29.8462L31.9582 16.1707L32 15.7724C32 14.961 31.3727 14.2972 30.606 14.2972ZM16.6666 8.10116L20.5697 14.2972H12.7636L16.6666 8.10116ZM25.7273 29.0495L7.61998 29.0643L4.55331 17.2476H28.7939L25.7273 29.0495ZM16.6666 20.1981C15.1333 20.1981 13.8788 21.5258 13.8788 23.1486C13.8788 24.7713 15.1333 26.0991 16.6666 26.0991C18.2 26.0991 19.4545 24.7713 19.4545 23.1486C19.4545 21.5258 18.2 20.1981 16.6666 20.1981Z" fill="white"/>
    </g>
    <defs>
        <clipPath id="clip0_148_2325">
            <rect width="32" height="32" fill="white"/>
        </clipPath>
    </defs>
</svg>
