<svg width="33" height="33" viewBox="0 0 33 33" fill="none" xmlns="http://www.w3.org/2000/svg">
<path fill-rule="evenodd" clip-rule="evenodd" d="M10.2644 1.46575C11.8772 1.3915 12.3915 1.375 16.5 1.375C20.6085 1.375 21.1227 1.39287 22.7342 1.46575C24.3457 1.53862 25.4457 1.79575 26.4082 2.16837C27.4161 2.54925 28.3305 3.14462 29.0867 3.91462C29.8567 4.6695 30.4507 5.5825 30.8302 6.59175C31.2042 7.55425 31.46 8.65425 31.5342 10.263C31.6085 11.8786 31.625 12.3929 31.625 16.5C31.625 20.6085 31.6071 21.1227 31.5342 22.7356C31.4614 24.3444 31.2042 25.4444 30.8302 26.4069C30.4507 27.4163 29.8558 28.3308 29.0867 29.0867C28.3305 29.8567 27.4161 30.4507 26.4082 30.8302C25.4457 31.2042 24.3457 31.46 22.737 31.5342C21.1227 31.6085 20.6085 31.625 16.5 31.625C12.3915 31.625 11.8772 31.6071 10.2644 31.5342C8.65562 31.4614 7.55562 31.2042 6.59312 30.8302C5.58377 30.4507 4.66925 29.8557 3.91325 29.0867C3.14377 28.3314 2.54831 27.4173 2.16837 26.4082C1.79575 25.4457 1.54 24.3457 1.46575 22.737C1.3915 21.1214 1.375 20.6071 1.375 16.5C1.375 12.3915 1.39287 11.8772 1.46575 10.2657C1.53862 8.65425 1.79575 7.55425 2.16837 6.59175C2.54887 5.58261 3.14479 4.66856 3.91462 3.91325C4.66956 3.14394 5.58315 2.54848 6.59175 2.16837C7.55425 1.79575 8.65425 1.54 10.263 1.46575H10.2644ZM22.6119 4.18825C21.0169 4.11537 20.5384 4.10025 16.5 4.10025C12.4616 4.10025 11.9831 4.11537 10.3881 4.18825C8.91275 4.25562 8.1125 4.50175 7.579 4.70937C6.87362 4.98437 6.369 5.31025 5.83962 5.83962C5.33781 6.32782 4.95162 6.92214 4.70937 7.579C4.50175 8.1125 4.25562 8.91275 4.18825 10.3881C4.11537 11.9831 4.10025 12.4616 4.10025 16.5C4.10025 20.5384 4.11537 21.0169 4.18825 22.6119C4.25562 24.0872 4.50175 24.8875 4.70937 25.421C4.95137 26.0769 5.33775 26.6722 5.83962 27.1604C6.32775 27.6622 6.92312 28.0486 7.579 28.2906C8.1125 28.4982 8.91275 28.7444 10.3881 28.8117C11.9831 28.8846 12.4602 28.8997 16.5 28.8997C20.5397 28.8997 21.0169 28.8846 22.6119 28.8117C24.0872 28.7444 24.8875 28.4982 25.421 28.2906C26.1264 28.0156 26.631 27.6897 27.1604 27.1604C27.6622 26.6722 28.0486 26.0769 28.2906 25.421C28.4982 24.8875 28.7444 24.0872 28.8117 22.6119C28.8846 21.0169 28.8997 20.5384 28.8997 16.5C28.8997 12.4616 28.8846 11.9831 28.8117 10.3881C28.7444 8.91275 28.4982 8.1125 28.2906 7.579C28.0156 6.87362 27.6897 6.369 27.1604 5.83962C26.6721 5.33785 26.0778 4.95166 25.421 4.70937C24.8875 4.50175 24.0872 4.25562 22.6119 4.18825ZM14.5681 21.1626C15.647 21.6117 16.8484 21.6724 17.967 21.3341C19.0857 20.9959 20.0522 20.2798 20.7015 19.3081C21.3508 18.3364 21.6426 17.1694 21.5271 16.0065C21.4116 14.8436 20.8959 13.7568 20.0681 12.9319C19.5404 12.4045 18.9024 12.0007 18.2 11.7496C17.4975 11.4984 16.7481 11.4061 16.0057 11.4793C15.2633 11.5526 14.5463 11.7895 13.9065 12.1731C13.2666 12.5566 12.7198 13.0773 12.3053 13.6975C11.8908 14.3178 11.619 15.0223 11.5095 15.7602C11.3999 16.4981 11.4553 17.2512 11.6717 17.9651C11.8882 18.679 12.2602 19.3361 12.761 19.889C13.2618 20.4419 13.879 20.8769 14.5681 21.1626ZM11.0027 11.0027C11.7247 10.2808 12.5817 9.70819 13.5249 9.3175C14.4681 8.9268 15.4791 8.72571 16.5 8.72571C17.5209 8.72571 18.5319 8.9268 19.4751 9.3175C20.4183 9.70819 21.2753 10.2808 21.9972 11.0027C22.7192 11.7247 23.2918 12.5817 23.6825 13.5249C24.0732 14.4681 24.2743 15.4791 24.2743 16.5C24.2743 17.5209 24.0732 18.5319 23.6825 19.4751C23.2918 20.4183 22.7192 21.2753 21.9972 21.9972C20.5393 23.4552 18.5619 24.2743 16.5 24.2743C14.4381 24.2743 12.4607 23.4552 11.0027 21.9972C9.54479 20.5393 8.72571 18.5619 8.72571 16.5C8.72571 14.4381 9.54479 12.4607 11.0027 11.0027ZM25.9985 9.8835C26.1774 9.71474 26.3206 9.51181 26.4197 9.28671C26.5187 9.06162 26.5716 8.81893 26.5752 8.57303C26.5788 8.32713 26.533 8.083 26.4405 7.85511C26.3481 7.62722 26.2108 7.4202 26.0369 7.2463C25.863 7.0724 25.656 6.93517 25.4281 6.84271C25.2002 6.75026 24.9561 6.70447 24.7102 6.70805C24.4643 6.71164 24.2216 6.76452 23.9965 6.86358C23.7714 6.96264 23.5685 7.10586 23.3997 7.28475C23.0716 7.63266 22.8919 8.09479 22.8988 8.57303C22.9058 9.05127 23.0989 9.50796 23.4371 9.84616C23.7753 10.1844 24.232 10.3774 24.7102 10.3844C25.1885 10.3914 25.6506 10.2117 25.9985 9.8835Z" fill="white"/>
</svg>