<svg width="109" height="36" viewBox="0 0 109 36" fill="none" xmlns="http://www.w3.org/2000/svg">
<path d="M15.6187 3.32V7.496H6.33065V13.04H14.8267V17.18H6.33065V26H0.858655V3.32H15.6187ZM36.2585 17.252C36.2585 18.668 36.0185 19.94 35.5385 21.068C35.0825 22.196 34.4465 23.156 33.6305 23.948C32.8145 24.74 31.8545 25.352 30.7505 25.784C29.6465 26.192 28.4585 26.396 27.1865 26.396C25.9145 26.396 24.7265 26.204 23.6225 25.82C22.5425 25.412 21.6065 24.836 20.8145 24.092C20.0225 23.348 19.3985 22.436 18.9425 21.356C18.4865 20.252 18.2585 19.004 18.2585 17.612C18.2585 16.148 18.4865 14.84 18.9425 13.688C19.4225 12.536 20.0705 11.564 20.8865 10.772C21.7025 9.98 22.6625 9.38 23.7665 8.972C24.8705 8.54 26.0585 8.324 27.3305 8.324C28.6025 8.324 29.7785 8.516 30.8585 8.9C31.9625 9.284 32.9105 9.86 33.7025 10.628C34.4945 11.372 35.1185 12.296 35.5745 13.4C36.0305 14.504 36.2585 15.788 36.2585 17.252ZM30.7865 17.432C30.7865 16.496 30.6905 15.704 30.4985 15.056C30.3065 14.384 30.0425 13.844 29.7065 13.436C29.3705 13.004 28.9865 12.692 28.5545 12.5C28.1225 12.308 27.6785 12.212 27.2225 12.212C26.7665 12.212 26.3225 12.296 25.8905 12.464C25.4825 12.632 25.1105 12.92 24.7745 13.328C24.4625 13.736 24.2105 14.276 24.0185 14.948C23.8265 15.596 23.7305 16.424 23.7305 17.432C23.7305 19.184 24.0905 20.468 24.8105 21.284C25.5305 22.1 26.3585 22.508 27.2945 22.508C27.7505 22.508 28.1825 22.424 28.5905 22.256C29.0225 22.064 29.3945 21.776 29.7065 21.392C30.0425 20.984 30.3065 20.456 30.4985 19.808C30.6905 19.16 30.7865 18.368 30.7865 17.432ZM57.7291 17.252C57.7291 18.668 57.4891 19.94 57.0091 21.068C56.5531 22.196 55.9171 23.156 55.1011 23.948C54.2851 24.74 53.3251 25.352 52.2211 25.784C51.1171 26.192 49.9291 26.396 48.6571 26.396C47.3851 26.396 46.1971 26.204 45.0931 25.82C44.0131 25.412 43.0771 24.836 42.2851 24.092C41.4931 23.348 40.8691 22.436 40.4131 21.356C39.9571 20.252 39.7291 19.004 39.7291 17.612C39.7291 16.148 39.9571 14.84 40.4131 13.688C40.8931 12.536 41.5411 11.564 42.3571 10.772C43.1731 9.98 44.1331 9.38 45.2371 8.972C46.3411 8.54 47.5291 8.324 48.8011 8.324C50.0731 8.324 51.2491 8.516 52.3291 8.9C53.4331 9.284 54.3811 9.86 55.1731 10.628C55.9651 11.372 56.5891 12.296 57.0451 13.4C57.5011 14.504 57.7291 15.788 57.7291 17.252ZM52.2571 17.432C52.2571 16.496 52.1611 15.704 51.9691 15.056C51.7771 14.384 51.5131 13.844 51.1771 13.436C50.8411 13.004 50.4571 12.692 50.0251 12.5C49.5931 12.308 49.1491 12.212 48.6931 12.212C48.2371 12.212 47.7931 12.296 47.3611 12.464C46.9531 12.632 46.5811 12.92 46.2451 13.328C45.9331 13.736 45.6811 14.276 45.4891 14.948C45.2971 15.596 45.2011 16.424 45.2011 17.432C45.2011 19.184 45.5611 20.468 46.2811 21.284C47.0011 22.1 47.8291 22.508 48.7651 22.508C49.2211 22.508 49.6531 22.424 50.0611 22.256C50.4931 22.064 50.8651 21.776 51.1771 21.392C51.5131 20.984 51.7771 20.456 51.9691 19.808C52.1611 19.16 52.2571 18.368 52.2571 17.432ZM73.1157 0.259999H78.4437V26H74.7717L74.2317 24.128H74.0517C73.7157 24.656 73.1277 25.172 72.2877 25.676C71.4717 26.156 70.3917 26.396 69.0477 26.396C67.9197 26.396 66.8757 26.192 65.9157 25.784C64.9557 25.352 64.1277 24.752 63.4317 23.984C62.7357 23.192 62.1837 22.244 61.7757 21.14C61.3917 20.012 61.1997 18.752 61.1997 17.36C61.1997 15.992 61.3797 14.756 61.7397 13.652C62.0997 12.524 62.6157 11.576 63.2877 10.808C63.9837 10.016 64.8357 9.404 65.8437 8.972C66.8517 8.54 67.9917 8.324 69.2637 8.324C70.0557 8.324 70.7997 8.444 71.4957 8.684C72.2157 8.9 72.7557 9.176 73.1157 9.512V0.259999ZM73.1157 13.4C72.8997 13.112 72.5637 12.836 72.1077 12.572C71.6517 12.308 71.1477 12.176 70.5957 12.176C70.0437 12.176 69.5277 12.272 69.0477 12.464C68.5677 12.632 68.1357 12.92 67.7517 13.328C67.3917 13.736 67.1037 14.264 66.8877 14.912C66.6717 15.536 66.5637 16.316 66.5637 17.252C66.5637 19.052 66.9117 20.384 67.6077 21.248C68.3277 22.088 69.2517 22.508 70.3797 22.508C71.0757 22.508 71.6517 22.328 72.1077 21.968C72.5877 21.608 72.9237 21.224 73.1157 20.816V13.4ZM81.9453 8.72H87.7773L90.6213 16.424L91.7733 20.636H91.9173L92.9973 16.352L95.4813 8.72H100.917L94.6893 26.324C94.3533 27.308 93.9573 28.268 93.5013 29.204C93.0453 30.14 92.4813 31.016 91.8093 31.832C91.1613 32.648 90.3693 33.392 89.4333 34.064C88.4973 34.736 87.3693 35.288 86.0493 35.72L83.8533 31.58C85.2693 31.076 86.4333 30.356 87.3453 29.42C88.2813 28.484 88.9053 27.404 89.2173 26.18L89.2893 25.892L81.9453 8.72ZM102.569 23.228C102.569 22.316 102.869 21.572 103.469 20.996C104.093 20.396 104.825 20.096 105.665 20.096C106.505 20.096 107.225 20.396 107.825 20.996C108.425 21.572 108.725 22.316 108.725 23.228C108.725 24.212 108.425 24.992 107.825 25.568C107.225 26.12 106.505 26.396 105.665 26.396C104.825 26.396 104.093 26.12 103.469 25.568C102.869 24.992 102.569 24.212 102.569 23.228Z" fill="white"/>
</svg>
